<?xml version="1.0" encoding="UTF-8" standalone="no"?>
<!-- Created with Inkscape (http://www.inkscape.org/) -->

<svg
   width="246.09627"
   height="142.74744"
   viewBox="0 0 65.11297 37.768593"
   version="1.1"
   id="svg1"
   inkscape:version="1.3 (0e150ed6c4, 2023-07-21)"
   sodipodi:docname="homepage_design.svg"
   xmlns:inkscape="http://www.inkscape.org/namespaces/inkscape"
   xmlns:sodipodi="http://sodipodi.sourceforge.net/DTD/sodipodi-0.dtd"
   xmlns="http://www.w3.org/2000/svg"
   xmlns:svg="http://www.w3.org/2000/svg">
  <sodipodi:namedview
     id="namedview1"
     pagecolor="#ffffff"
     bordercolor="#000000"
     borderopacity="0.25"
     inkscape:showpageshadow="2"
     inkscape:pageopacity="0.0"
     inkscape:pagecheckerboard="0"
     inkscape:deskcolor="#d1d1d1"
     inkscape:document-units="px"
     inkscape:zoom="0.63118804"
     inkscape:cx="979.10601"
     inkscape:cy="575.89812"
     inkscape:window-width="1366"
     inkscape:window-height="697"
     inkscape:window-x="1272"
     inkscape:window-y="-8"
     inkscape:window-maximized="1"
     inkscape:current-layer="layer1" />
  <defs
     id="defs1" />
  <g
     inkscape:label="Layer 1"
     inkscape:groupmode="layer"
     id="layer1"
     transform="translate(-42.041462,-179.74505)">
    <g
       id="g217"
       transform="matrix(0.25217791,0,0,0.25217791,-7.7172681,124.59939)">
      <path
         style="fill:#1a1a1a;stroke-width:0.264583"
         id="path141"
         d="m 221.71316,226.29755 c -0.35163,-0.33251 -0.66632,-0.70906 -1.05489,-0.99754 -3.28747,-2.44058 -7.95045,-2.93186 -11.86254,-2.0499 -1.38656,0.3126 -2.64673,1.03724 -3.97009,1.55586 -1.17866,0.88296 -2.5134,1.58906 -3.53596,2.64887 -4.75865,4.93196 -5.21639,12.10932 -1.5181,17.81931 1.00432,1.55061 2.46135,2.75571 3.69203,4.13357 1.74617,1.06518 3.37483,2.35271 5.23853,3.19554 3.49926,1.58249 8.55114,2.69092 12.40534,2.63208 2.24437,-0.0343 4.45018,-0.59106 6.67528,-0.88659 0.1882,-0.0573 -0.62258,-2.71887 -0.81078,-2.66154 v 0 c -7.42552,-0.48845 -13.70517,-0.64032 -20.2925,-4.69221 -2.72379,-2.58435 -4.02047,-3.14358 -5.22171,-6.78296 -1.20212,-3.64207 -0.21147,-7.4832 2.39153,-10.25106 0.83207,-0.88476 1.92647,-1.47961 2.88971,-2.21942 1.8789,-0.80909 3.51502,-1.74516 5.57601,-1.92398 2.69579,-0.23389 5.39241,0.40464 7.70954,1.76209 0.0907,0.1194 1.77926,-1.16272 1.6886,-1.28212 z" />
      <path
         style="fill:#1a1a1a;stroke-width:0.264583"
         id="path142"
         d="m 232.13331,226.63356 c -1.99528,0.62111 -3.10089,0.77788 -4.82533,2.26971 -3.12584,2.7042 -4.9241,6.95358 -4.1771,11.11459 0.281,1.56526 1.14537,2.96717 1.71806,4.45076 1.13984,1.24034 2.06656,2.71743 3.41951,3.72102 5.81606,4.31424 16.41694,5.01021 21.47847,-0.9274 1.16807,-1.37025 1.61113,-3.2206 2.4167,-4.8309 -0.0639,-1.93118 0.32206,-3.93087 -0.19171,-5.79356 -1.09527,-3.97095 -4.35222,-7.96111 -8.04998,-9.78196 -2.08147,-1.02496 -4.5112,-1.08687 -6.76679,-1.63031 -0.18508,-0.10253 -1.63513,2.51476 -1.45006,2.6173 v 0 c 1.68238,0.68811 3.4537,1.18976 5.04713,2.06432 3.04274,1.67002 5.64289,3.7189 7.01844,7.02275 0.52239,1.25468 0.4146,2.68636 0.62191,4.02954 -0.49593,1.13274 -0.69959,2.44543 -1.48778,3.39821 -3.55071,4.29215 -11.25004,4.13177 -15.66009,1.53321 -1.13149,-0.6667 -1.94522,-1.76498 -2.91782,-2.64748 -0.51633,-1.06912 -1.26197,-2.0553 -1.54899,-3.20735 -0.78952,-3.16897 0.5309,-6.51633 2.71728,-8.78065 1.03557,-1.07248 2.30698,-1.72383 3.56588,-2.45486 0.15322,-0.0656 -0.77451,-2.23254 -0.92773,-2.16694 z" />
      <path
         style="fill:#1a1a1a;stroke-width:0.264583"
         id="path143"
         d="m 249.36595,229.44384 c 0.98064,5.13572 1.98476,10.2601 3.18783,15.34956 0.19097,1.67846 0.85056,2.91493 1.79223,4.23825 0.0101,0.0728 1.04028,-0.0694 1.03022,-0.14221 v 0 c 0.45401,-1.59192 0.54523,-2.96137 0.0583,-4.61188 -1.00085,-5.20914 -2.05353,-10.47731 -4.08162,-15.39937 -0.04,-0.1405 -2.02696,0.42515 -1.98696,0.56565 z" />
      <path
         style="fill:#1a1a1a;stroke-width:0.264583"
         id="path144"
         d="m 253.12524,233.28229 c 2.72068,0.0528 5.3377,1.18338 7.89139,2.02156 0.11116,0.0854 1.3197,-1.48666 1.20854,-1.57212 v 0 c -0.96055,-0.69631 -1.81255,-1.57456 -2.88163,-2.08892 -1.60268,-0.77109 -4.26591,-0.85548 -5.96135,-0.61512 -0.58379,0.0828 -1.1076,0.40478 -1.6614,0.60717 -0.11649,0.0993 1.28796,1.74674 1.40445,1.64743 z" />
      <path
         style="fill:#1a1a1a;stroke-width:0.264583"
         id="path145"
         d="m 266.70672,229.48144 c -2.45133,2.96229 -3.40656,6.68496 -4.55507,10.26627 -0.0428,0.12603 1.73946,0.73179 1.7823,0.60576 v 0 c 1.63704,-3.21689 3.51069,-6.30579 4.88081,-9.65449 0.0861,-0.14906 -2.02195,-1.3666 -2.10804,-1.21754 z" />
      <path
         style="fill:#1a1a1a;stroke-width:0.264583"
         id="path146"
         d="m 266.56114,230.82964 c 2.1631,4.81668 4.13515,9.71766 6.05647,14.63493 0.25792,0.68585 1.16113,3.06362 1.46143,3.93821 0.11615,0.3383 0.21606,0.68201 0.31774,1.02493 0.0387,0.13036 0,0.48224 0.10319,0.39463 1.50037,-1.26428 -1.8061,-0.6705 1.86978,-0.81069 -0.2363,-0.019 -0.4726,-0.0381 -0.7089,-0.0571 -0.0278,-0.0652 -0.9503,0.32766 -0.92252,0.3929 v 0 c -0.0672,0.30642 -0.13428,0.61284 -0.20143,0.91926 0.66969,0.15689 1.3335,0.59977 2.00912,0.47067 0.37406,-0.0715 0.46855,-0.61394 0.60383,-0.96995 0.53263,-1.40171 -0.89027,-5.06013 -1.17917,-6.34428 -1.85634,-5.16754 -3.90091,-10.37764 -7.13497,-14.85936 -0.0895,-0.16084 -2.36408,1.10503 -2.27457,1.26586 z" />
      <path
         style="fill:#1a1a1a;stroke-width:0.264583"
         id="path150"
         d="m 275.31536,227.74562 c 0.50276,5.31471 1.58925,10.55545 2.5935,15.79289 0.71456,2.22287 0.62344,4.84572 1.74545,6.94572 1.97067,-0.49849 2.3309,-0.0821 1.48352,-0.72634 1.6e-4,-0.0631 -0.89167,-0.0656 -0.89185,-0.003 v 0 c -0.86527,0.51831 -0.48332,0.20443 1.45957,0.26333 0.051,-2.31533 -0.71231,-4.6258 -0.84783,-6.92335 -0.88294,-5.2758 -1.83904,-10.56009 -3.3645,-15.69388 -0.0243,-0.154 -2.2022,0.1902 -2.17786,0.3442 z" />
      <path
         style="fill:#1a1a1a;stroke-width:0.264583"
         id="path151"
         d="m 278.97915,229.50634 c -0.051,-2.27849 -0.86021,-4.72657 -0.0103,-6.95956 0.17029,-0.44733 0.36198,-0.97335 0.78079,-1.2051 0.51927,-0.28735 1.17903,-0.13705 1.76855,-0.20558 5.4674,0.82032 11.1519,3.13621 15.18653,7.0248 0.59065,0.56929 1.02939,1.27762 1.54408,1.91643 0.14206,0.51272 0.46593,1.0076 0.42619,1.53815 -0.0815,1.08809 -1.54072,1.62549 -2.26356,1.90576 -2.80046,1.08586 -5.79271,1.37926 -8.74612,1.73202 -1.88616,0.39587 -3.86075,0.0984 -5.7589,0.31451 -0.40235,0.0458 -0.78798,0.18708 -1.18197,0.28062 -0.0755,-0.0376 -0.60669,1.0299 -0.5312,1.06746 v 0 c 0.3085,0.2733 0.55369,0.64202 0.92548,0.81988 2.00472,0.95907 5.52667,0.48765 7.66633,0.48353 4.02532,-0.57294 12.25084,-1.60925 12.47304,-7.12674 0.0338,-0.83843 -0.36163,-1.63878 -0.54247,-2.45818 -0.56661,-0.84393 -1.02431,-1.77223 -1.69985,-2.53179 -3.30469,-3.71583 -9.67845,-7.00482 -14.6373,-7.39897 -1.3965,-0.11101 -2.79696,0.16473 -4.19545,0.2471 -0.84809,0.46225 -1.83134,0.73513 -2.54433,1.38677 -0.52147,0.47661 -0.78293,1.19408 -1.01103,1.8627 -0.85117,2.49494 -0.0951,5.20979 0.63624,7.61698 0.022,0.12129 1.7372,-0.18951 1.71522,-0.31079 z" />
      <path
         style="fill:#1a1a1a;stroke-width:0.264583"
         id="path152"
         d="m 302.2796,232.14207 c -0.30766,4.13621 0.18915,8.53677 2.4401,12.12561 0.36089,0.57538 0.84785,1.06131 1.27179,1.59197 0.56148,0.28215 1.05728,0.80739 1.68445,0.84645 0.90919,0.0566 1.92159,-0.0581 2.6716,-0.57513 0.77608,-0.53493 1.20801,-1.48094 1.57245,-2.35021 1.42348,-3.39524 0.8723,-7.24351 0.50924,-10.75726 -0.47813,-2.06078 -0.69855,-3.95527 -1.84677,-5.77198 -0.323,-0.51102 -0.85132,-0.85855 -1.27698,-1.28783 -0.0328,-0.0886 -1.2863,0.37557 -1.25349,0.4642 v 0 c -0.0167,0.48096 -0.0824,0.96271 -0.0502,1.44289 0.0601,0.89564 0.69422,4.91263 0.7806,5.48071 0.34674,3.11191 0.70567,6.12355 0.29348,9.24891 -0.0594,0.45027 -0.27141,0.87753 -0.28985,1.33132 -0.008,0.20264 0.37533,0.44913 0.21254,0.57008 -0.23665,0.17581 -0.58756,-0.0488 -0.88133,-0.0732 -0.35137,-0.37983 -0.76713,-0.70894 -1.05413,-1.13948 -2.17231,-3.25895 -2.38995,-7.40265 -2.96328,-11.14705 0,-0.1287 -1.8202,-0.1287 -1.8202,0 z" />
      <path
         style="fill:#1a1a1a;stroke-width:0.264583"
         id="path153"
         d="m 314.56272,232.83003 c 0.73523,2.61989 1.14015,5.38773 2.15162,7.92593 0.38505,0.96628 0.94554,1.85305 1.4155,2.78102 0.0161,0.0863 1.237,-0.14323 1.22078,-0.22955 v 0 c 0.0177,-0.78742 0.0761,-2.48691 -0.0169,-3.15082 -0.38867,-2.77519 -1.59581,-5.43391 -2.62803,-8.00813 -0.0482,-0.15153 -2.19114,0.53002 -2.14296,0.68155 z" />
      <path
         style="fill:#1a1a1a;stroke-width:0.264583"
         id="path154"
         d="m 313.32471,234.57469 c 4.2939,-1.29085 8.74152,-1.85894 13.18472,-2.33436 1.1144,-0.1818 2.41506,0.0477 3.26472,-0.80704 0.0722,0.0221 0.38465,-0.99961 0.31239,-1.0217 v 0 c -1.45806,-0.54486 -2.8358,-0.87917 -4.42386,-0.68188 -4.63666,0.32697 -9.39906,0.98063 -13.55338,3.19766 -0.1165,0.0859 1.09892,1.73327 1.21541,1.64732 z" />
      <path
         style="fill:#1a1a1a;stroke-width:0.264583"
         id="path155"
         d="m 327.55152,232.77983 c -1.19536,4.49525 -2.31601,9.13267 -2.51251,13.79997 0.5366,1.23344 0.63227,1.94491 3.01159,-0.81762 0.59624,-0.6923 0.47104,-1.76589 0.67961,-2.65544 0.27747,-1.18341 0.52591,-2.37348 0.77824,-3.5625 0.70332,-3.31422 0.95507,-4.6473 1.60782,-7.94945 0.31925,-0.73346 0.87353,-6.2143 2.51482,-6.11805 0.22558,0.0132 0.023,0.48675 0.17364,0.65525 0.4553,0.50962 1.05302,0.87135 1.57951,1.30702 0.70345,0.83822 1.40687,1.67645 2.11032,2.51467 2.35521,3.07553 4.32908,6.41132 6.27044,9.75504 0.48011,0.82691 0.94469,1.66276 1.42372,2.49031 0.31025,0.536 0.54914,1.12317 0.94409,1.60023 0.21865,0.26414 0.56978,0.3817 0.85465,0.57255 0.004,0.0821 1.16539,0.0259 1.16142,-0.0562 v 0 c 0.24635,-0.47728 0.70062,-0.89612 0.73909,-1.43186 0.0707,-0.98488 -1.42193,-4.25872 -1.66185,-4.75593 -1.79417,-3.71828 -4.04601,-7.20691 -6.68822,-10.37799 -1.25457,-1.25284 -3.62974,-4.04212 -5.6089,-4.54525 -5.52688,-1.40501 -6.51076,3.87203 -7.60794,7.75305 -0.79128,3.88645 -1.49449,7.75513 -1.86899,11.7082 -0.0836,0.88204 -0.58933,1.87056 -0.17248,2.65235 0.44463,0.83385 1.95138,0.61894 2.41403,1.48643 0.73933,-4.53549 1.1883,-9.12749 1.75615,-13.68556 0.0241,-0.13422 -1.87426,-0.47341 -1.89825,-0.33918 z" />
      <path
         style="fill:#1a1a1a;stroke-width:0.264583"
         id="path156"
         d="m 332.34685,240.4567 c 4.48548,-0.0813 8.94649,-0.43892 13.37456,-1.15019 0.12472,-0.0354 -0.37576,-1.7993 -0.50049,-1.76391 v 0 c -1.0123,-0.0904 -2.02126,-0.23438 -3.03694,-0.27117 -3.58166,-0.12976 -7.17767,0.35316 -10.63845,1.25544 -0.13644,0.0567 0.66488,1.9865 0.80132,1.92983 z" />
      <path
         style="fill:#1a1a1a;stroke-width:0.264583"
         id="path157"
         d="m 351.93983,232.93738 c 1.35583,3.04597 2.27893,6.39715 4.1701,9.1808 0.2536,0.37327 0.58272,0.68919 0.87407,1.03379 0.0193,0.0883 1.26884,-0.18594 1.24945,-0.27429 v 0 c 0.0651,-0.51538 0.2404,-1.02862 0.19529,-1.54613 -0.0559,-0.64117 -0.28499,-1.25772 -0.49274,-1.86687 -0.91099,-2.67108 -2.30555,-5.19835 -3.83982,-7.55338 -0.0725,-0.15248 -2.22893,0.8736 -2.15635,1.02608 z" />
      <path
         style="fill:#1a1a1a;stroke-width:0.264583"
         id="path158"
         d="m 345.71884,233.41854 c 5.04738,-0.52764 10.09946,-1.03888 15.17063,-1.26147 1.12162,-0.22162 3.07189,0.43359 3.87678,-0.63458 0.0439,0.0457 0.69032,-0.57562 0.64637,-0.62133 v 0 c -0.0749,-0.17691 -0.10017,-0.38437 -0.2246,-0.53072 -1.17232,-1.37888 -3.61672,-0.82948 -5.0986,-1.02641 -5.15591,0.0933 -10.3963,0.46622 -15.27799,2.26277 -0.12812,0.0642 0.7793,1.8759 0.90741,1.81174 z" />
      <path
         style="fill:#1a1a1a;stroke-width:0.264583"
         id="path159"
         d="m 367.78252,229.34284 c 0.18862,4.59489 1.15623,9.1139 2.41396,13.52298 0.091,0.25285 0.65066,2.02324 1.0097,2.39055 0.16983,0.17374 0.45024,0.18279 0.67535,0.27419 0.0427,0.0967 1.4102,-0.50676 1.36755,-0.60346 v 0 c 0.11414,-0.11428 0.31414,-0.18381 0.34245,-0.34284 0.13851,-0.77761 -0.64117,-1.57357 -0.41984,-2.33205 -0.92244,-4.42623 -1.87873,-8.8492 -2.99985,-13.22966 -0.0227,-0.16895 -2.41197,0.15134 -2.38932,0.32029 z" />
      <path
         style="fill:#1a1a1a;stroke-width:0.264583"
         id="path160"
         d="m 377.80568,230.8437 c -1.29167,4.3571 -1.24931,9.9626 3.01593,12.78288 0.95536,0.63172 2.12313,0.85994 3.18469,1.28991 1.48092,-0.0389 3.0049,0.24002 4.44277,-0.11658 4.36267,-1.08197 6.82393,-5.26366 6.39755,-9.59929 -0.42579,-4.32951 -2.0746,-5.44098 -4.63251,-8.69442 -6.24025,-2.86771 -3.05057,-2.03805 -9.5214,-2.66546 -0.15134,-0.0602 -1.00304,2.07988 -0.8517,2.1401 v 0 c 4.92094,1.1069 2.58517,0.184 6.9926,2.80558 2.18109,2.30535 3.47419,3.03691 4.25884,6.20038 1.03812,4.18554 -1.9553,6.36921 -5.56178,7.18423 -0.78997,-0.15131 -1.64084,-0.11423 -2.36993,-0.45394 -3.76759,-1.75551 -3.32129,-7.0279 -3.1056,-10.40203 0.0333,-0.15906 -2.21612,-0.63042 -2.24946,-0.47136 z" />
      <path
         style="fill:#1a1a1a;stroke-width:0.264583"
         id="path161"
         d="m 396.35197,236.31849 c -0.8863,3.97747 0.33626,-1.6176 -0.50319,2.60808 -0.15684,0.7896 -1.07873,2.41621 1.88857,-0.23942 0.29123,-0.26065 0.12314,-0.77327 0.1455,-1.16347 0.0475,-0.82882 0.0426,-1.6598 0.0638,-2.4897 0.08,-1.01535 -0.2658,-8.65027 2.51412,-7.24395 0.39283,0.19872 0.51234,0.72472 0.83868,1.0202 0.8437,0.76399 1.77123,1.42999 2.65687,2.14498 2.98915,2.80055 5.6697,5.90785 8.23118,9.09771 0.53785,0.66978 1.01553,1.38763 1.57248,2.04163 0.28535,0.3351 0.51075,0.96471 0.94847,0.91865 0.99941,-0.10516 1.812,-0.86963 2.71802,-1.30445 -0.69374,-4.72059 -2.04431,-9.33258 -3.38366,-13.9046 -0.3362,-1.14766 -0.58531,-2.32699 -1.03483,-3.43517 -0.33523,-0.82635 -0.87054,-1.5566 -1.30583,-2.3349 -0.0177,-0.11987 -1.71283,0.12989 -1.69516,0.24976 v 0 c -0.13901,0.90573 -0.4337,1.80101 -0.41701,2.71719 0.0225,1.23042 0.29949,2.44493 0.53301,3.65319 0.87481,4.5264 2.23184,9.08943 4.45166,13.14218 0.91747,-0.12195 1.95988,0.11221 2.75238,-0.36586 0.31737,-0.19145 -0.31662,-0.67088 -0.49741,-0.99443 -0.45117,-0.80747 -0.88345,-1.62834 -1.39761,-2.39722 -2.44872,-3.66182 -5.41827,-6.95038 -8.75456,-9.82199 -2.82956,-1.91526 -4.18912,-3.54993 -7.94195,-3.2033 -0.96067,0.0887 -1.85462,0.71445 -2.53275,1.40063 -2.2412,2.26776 -1.69849,5.95382 -1.69277,8.77094 0.0359,0.29288 0.36914,4.48334 1.03976,4.90556 3.63053,2.28578 2.98423,-2.18171 2.77143,-3.67364 0.007,-0.13924 -1.96226,-0.23785 -1.96924,-0.0986 z" />
      <path
         style="fill:#1a1a1a;stroke-width:0.264583"
         id="path162"
         d="m 424.4545,242.23583 c 0.11647,-4.09885 0.43307,-8.21764 1.5091,-12.19175 0.28692,-1.0596 0.55386,-2.14038 1.03921,-3.12501 0.35843,-0.72712 0.97332,-1.29666 1.45997,-1.94499 0.54721,-0.17324 1.07082,-0.57959 1.64169,-0.51971 0.37565,0.0394 0.54477,0.52343 0.82354,0.7783 0.63981,0.58496 1.38067,1.07202 1.93198,1.74104 2.42687,2.94501 3.60278,6.59575 4.80897,10.13756 0.72024,2.31811 1.08815,4.71224 1.45557,7.10293 -0.0217,0.1005 1.39957,0.40783 1.42129,0.30733 v 0 c 0.38717,-0.65246 0.94581,-1.23 1.1615,-1.95738 0.68024,-2.29402 0.0952,-4.18558 -0.25292,-6.47771 -0.42307,-1.35494 -0.74073,-2.74742 -1.26918,-4.06484 -1.29394,-3.22567 -4.24783,-8.56632 -7.76941,-9.88617 -1.32717,-0.49741 -2.82905,-0.63696 -4.23061,-0.42599 -1.02589,0.15443 -1.827,0.98355 -2.7405,1.47533 -0.66466,0.90744 -1.47624,1.72373 -1.994,2.72231 -0.57015,1.09969 -0.91805,2.30747 -1.23479,3.50501 -1.14218,4.31852 -1.32527,8.95907 -0.2981,13.30801 0.0343,0.17937 2.57093,-0.30489 2.53669,-0.48427 z" />
      <path
         style="fill:#1a1a1a;stroke-width:0.264583"
         id="path163"
         d="m 426.73709,240.50268 c 2.48422,0.0711 4.95231,-0.29616 7.41045,-0.59378 0.12599,-0.0411 -0.45509,-1.82284 -0.58108,-1.78175 v 0 c -2.49005,0.0818 -5.01608,0.0674 -7.45646,0.64529 -0.12235,0.0443 0.50474,1.77458 0.62709,1.73024 z" />
      <path
         style="fill:#1a1a1a;stroke-width:0.264583"
         id="path164"
         d="m 442.96549,226.51247 c 0.92774,4.79427 1.38904,9.67055 2.41313,14.44494 0.2675,0.53007 0.42662,1.13056 0.80246,1.5902 1.61343,1.97315 4.72453,1.70239 6.88485,1.10757 0.86913,-0.23931 1.62743,-0.77598 2.44115,-1.16396 0.11224,-0.053 -0.6378,-1.64057 -0.75004,-1.58753 v 0 c -0.93054,0.0135 -1.86489,-0.045 -2.79159,0.0405 -0.55004,0.0507 -2.779,0.99384 -3.21916,0.55192 -0.24635,-0.24733 -0.30739,-0.62684 -0.46109,-0.94026 -0.56541,-4.9597 -1.02886,-9.99911 -2.84932,-14.69413 -0.046,-0.17469 -2.51643,0.47604 -2.47039,0.65073 z" />
      <path
         style="fill:#1a1a1a;stroke-width:0.264583"
         id="path165"
         d="m 285.19175,257.10397 c 3.08899,6.92839 5.44761,14.12474 7.72959,21.34712 0.44744,0.83852 0.89488,1.67704 1.34231,2.51556 0.0148,0.12681 1.80803,-0.0811 1.79332,-0.20791 v 0 c 0.18947,-1.02719 0.37894,-2.05439 0.56838,-3.08158 -0.25294,-1.33474 -0.42455,-2.6875 -0.7588,-4.00423 -1.3844,-5.45351 -3.8486,-11.38384 -6.87599,-16.14312 -0.43656,-0.68631 -0.96247,-1.31154 -1.4437,-1.96731 -0.10898,-0.16653 -2.46412,1.37494 -2.35511,1.54147 z" />
      <path
         style="fill:#1a1a1a;stroke-width:0.264583"
         id="path166"
         d="m 289.83413,263.36743 c 4.32927,-2.2597 8.83518,-3.22512 13.64176,-3.79649 0.49072,-0.0475 0.98147,-0.0949 1.47219,-0.14234 0.0826,0.0492 0.7787,-1.11879 0.6961,-1.16802 v 0 c -0.49083,-0.39535 -0.98169,-0.7907 -1.47252,-1.18605 -1.09135,-0.0959 -2.17865,-0.30561 -3.27408,-0.28774 -3.8394,0.0626 -8.31493,1.66444 -11.46895,3.829 -0.53284,0.3657 -0.99626,0.82349 -1.49439,1.23524 -0.10724,0.13434 1.79268,1.65075 1.89989,1.5164 z" />
      <path
         style="fill:#1a1a1a;stroke-width:0.264583"
         id="path167"
         d="m 293.44186,271.11904 c 2.10539,0.47405 3.14322,0.80137 5.45372,0.83034 1.28503,0.0161 2.5653,-0.15941 3.84792,-0.23913 0.14401,0.0408 0.72022,-1.99567 0.57621,-2.03642 v 0 c -2.98837,-0.38129 -5.95273,-0.69371 -8.9729,-0.54567 -0.14078,-0.064 -1.04574,1.9269 -0.90495,1.99088 z" />
      <path
         style="fill:#1a1a1a;stroke-width:0.264583"
         id="path168"
         d="m 305.67026,261.98961 c -0.42981,2.72495 -0.58182,5.48871 -0.62902,8.24429 -0.0275,1.60737 -0.0606,4.33301 0.2861,5.96765 0.1606,0.75729 0.51892,1.45873 0.7784,2.18808 0.56221,0.53536 0.99259,1.25831 1.68667,1.60608 2.01639,1.01028 4.37253,0.46071 6.39529,-0.0206 2.80861,-0.66821 5.43391,-2.06058 7.98185,-3.36643 2.01263,-1.14879 1.32495,-0.39174 2.28499,-2.04769 0.0729,-0.0473 -0.59647,-1.07765 -0.66934,-1.03031 v 0 c -2.22351,-0.30358 -1.05963,-0.36894 -3.4762,0.3815 -2.53754,0.97261 -5.07683,1.95538 -7.60048,2.96185 -0.67897,0.27078 -1.95577,0.98436 -2.73399,1.01068 -0.29649,0.0101 -0.55171,-0.21822 -0.82756,-0.32734 -0.15632,-0.53393 -0.38182,-1.0523 -0.46895,-1.60176 -0.25966,-1.63721 -0.19489,-4.09183 -0.20741,-5.68338 -0.0214,-2.71592 -0.0522,-5.43266 -0.23936,-8.14345 0.01,-0.18109 -2.55112,-0.32035 -2.56099,-0.13926 z" />
      <path
         style="fill:#1a1a1a;stroke-width:0.264583"
         id="path169"
         d="m 318.62614,264.71374 c 0.0995,0.68353 0.12952,1.38086 0.29861,2.05058 1.27619,5.05412 4.43635,10.85225 9.63991,12.7354 1.43857,0.52062 3.03234,0.40857 4.5485,0.61283 1.74162,-0.6418 3.71079,-0.8518 5.22486,-1.92546 1.3452,-0.95385 2.29757,-2.43652 3.01834,-3.91972 2.25502,-4.64037 1.88437,-10.6525 0.013,-15.33334 -0.50252,-1.25695 -1.36803,-2.33632 -2.05203,-3.50448 -0.80592,-0.61939 -1.61187,-1.23877 -2.41779,-1.85816 -0.0664,-0.10108 -1.49587,0.8384 -1.42946,0.93947 v 0 c 0.28183,0.69271 0.56366,1.38541 0.84547,2.07812 1.30001,3.81576 2.49259,7.59999 2.26645,11.70682 -0.0736,1.33602 -0.24223,2.6978 -0.71313,3.95023 -0.3891,1.03487 -1.09876,1.93405 -1.81573,2.77569 -0.48197,0.56579 -1.1589,0.93094 -1.73834,1.39642 -2.85149,0.0143 -4.19523,0.46265 -6.71301,-1.39478 -1.03804,-0.76581 -1.76244,-1.89108 -2.53375,-2.92499 -1.74364,-2.33725 -3.11979,-4.99078 -4.02731,-7.75773 -0.0265,-0.17074 -2.44094,0.20238 -2.41456,0.3731 z" />
      <path
         style="fill:#1a1a1a;stroke-width:0.264583"
         id="path170"
         d="m 347.60278,263.46137 c 1.1771,6.66326 2.89835,13.20514 4.98147,19.63933 0.86489,2.26999 0.279,1.41274 1.46206,2.75061 0.0241,0.11773 1.68889,-0.22257 1.66484,-0.34031 v 0 c 0.42931,-1.73948 0.3208,-0.70723 -0.0546,-3.11333 -1.50307,-6.654 -3.17738,-13.326 -5.84978,-19.6196 -0.0483,-0.15584 -2.25229,0.52745 -2.20398,0.6833 z" />
      <path
         style="fill:#1a1a1a;stroke-width:0.264583"
         id="path171"
         d="m 359.59147,267.90007 c 1.24148,5.28158 2.23007,10.63413 3.68721,15.86254 0.51993,1.19925 0.0895,0.96059 1.44881,0.28405 -0.0453,-0.0452 -0.68541,0.59494 -0.64014,0.64019 v 0 c 1.88077,-0.26665 1.42206,0.28673 1.75615,-1.25122 -0.19841,-5.5899 -1.83642,-11.08032 -3.89578,-16.24835 -0.0504,-0.16661 -2.40665,0.54615 -2.35625,0.71279 z" />
      <path
         style="fill:#1a1a1a;stroke-width:0.264583"
         id="path172"
         d="m 360.82964,263.80815 c 2.22713,-1.83031 5.00447,-2.5313 7.87369,-2.08274 1.95812,0.30613 3.4612,1.46706 5.12236,2.44607 0.846,0.8482 1.80953,1.59356 2.53801,2.5446 1.8755,2.44851 3.52438,6.27253 2.63845,9.43631 -0.6259,2.23523 -1.93431,2.78816 -3.63368,4.09438 -4.83325,1.84983 -0.80071,0.49681 -5.9101,1.67582 -0.76274,0.17602 -1.50606,0.42748 -2.25907,0.64121 -0.13224,-0.0351 -0.62891,1.83484 -0.4967,1.86995 v 0 c 1.37496,0.23474 2.73002,0.6985 4.12485,0.70424 3.30952,0.0135 4.57089,-1.02561 7.42731,-2.43406 0.94141,-0.94123 2.08192,-1.71863 2.82424,-2.82366 3.24392,-4.82886 1.42433,-11.13933 -1.9391,-15.34816 -0.90768,-1.13584 -2.08865,-2.02329 -3.13296,-3.03494 -1.23203,-0.67554 -2.36538,-1.57564 -3.69613,-2.02663 -4.08675,-1.385 -9.25639,-1.05924 -12.39726,2.17914 -0.38505,0.39699 -0.62923,0.90967 -0.94385,1.3645 -0.0561,0.13152 1.8038,0.92548 1.85994,0.79397 z" />
      <path
         style="fill:#1a1a1a;stroke-width:0.264583"
         id="path173"
         d="m 259.14061,296.8013 c 0.30191,5.74 1.58477,11.38174 2.82972,16.97704 0.78078,2.65509 0.20862,1.55744 1.49046,3.40125 0.0115,0.0901 1.28547,-0.0731 1.27393,-0.16323 v 0 c 0.66641,-2.17646 0.47723,-0.94173 0.28165,-3.73679 -0.95251,-5.62853 -2.14829,-11.21174 -3.70049,-16.7078 -0.0162,-0.1538 -2.1915,0.0757 -2.17527,0.22953 z" />
      <path
         style="fill:#1a1a1a;stroke-width:0.264583"
         id="path174"
         d="m 258.68108,298.33736 c 3.6956,-1.46039 7.39479,-1.80062 11.27057,-0.79634 1.43896,0.37285 2.88639,0.75851 4.2505,1.34914 1.38486,0.59962 2.63657,1.46904 3.95486,2.20358 1.04738,0.90305 2.22573,1.67346 3.14217,2.70915 1.9514,2.20525 3.18447,5.25589 0.48019,7.4963 -1.885,1.56165 -4.37166,1.87339 -6.62758,2.43997 -3.75626,0.46889 -7.53102,0.1861 -11.29946,0.1235 -0.13973,-0.0625 -1.02406,1.91358 -0.88433,1.9761 v 0 c 1.22429,0.49217 2.3818,1.20401 3.67286,1.4765 4.50432,0.95063 6.11061,0.42379 10.45525,-0.0979 3.32346,-1.24426 5.59538,-1.55546 7.91607,-4.49816 2.91547,-3.69686 1.8724,-7.97851 -0.9021,-11.33028 -1.02706,-1.24076 -2.38204,-2.16868 -3.57309,-3.25302 -1.51323,-0.83971 -2.94526,-1.84627 -4.53969,-2.51915 -5.38123,-2.27106 -11.74275,-2.53921 -17.06681,0.005 -0.61923,0.29591 -1.15885,0.73559 -1.73827,1.10339 -0.11402,0.1053 1.37484,1.7177 1.48886,1.61242 z" />
      <path
         style="fill:#1a1a1a;stroke-width:0.264583"
         id="path175"
         d="m 284.83882,297.05712 c 4.7207,2.91166 9.06839,6.40784 13.8161,9.2759 0.91379,0.552 1.87385,1.02349 2.81077,1.53524 0.72499,0.25337 1.44997,0.50676 2.17498,0.76012 0.0798,0.0761 1.15578,-1.05285 1.07596,-1.12895 v 0 c -0.4404,-0.55628 -0.88083,-1.1126 -1.32123,-1.66888 -0.78584,-0.67548 -1.53945,-1.39041 -2.35754,-2.02645 -4.45037,-3.45985 -9.5912,-6.59323 -14.78087,-8.79572 -0.14486,-0.10028 -1.56303,1.94847 -1.41817,2.04874 z" />
      <path
         style="fill:#1a1a1a;stroke-width:0.264583"
         id="path176"
         d="m 303.92825,294.59467 c -0.3465,0.68461 -0.7215,1.35554 -1.03947,2.05386 -1.09765,2.41043 -1.77562,4.33469 -2.71365,6.85162 -1.53143,4.10924 -2.98585,8.24026 -4.41507,12.38589 -0.14989,1.14358 -2.10524,4.74096 -1.53596,6.04628 0.059,0.13536 0.2944,0.0238 0.44159,0.0355 -0.0519,0.0327 0.41037,0.76634 0.46225,0.73366 v 0 c 0.25032,-0.0282 0.52784,0.0323 0.75102,-0.0845 1.97001,-1.03129 2.33638,-3.99645 3.33552,-5.67259 2.77069,-7.02821 5.10233,-14.22014 6.91849,-21.55658 0.0561,-0.15589 -2.14863,-0.94904 -2.20472,-0.79312 z" />
      <path
         style="fill:#1a1a1a;stroke-width:0.264583"
         id="path177"
         d="m 309.61584,300.32288 c -0.66797,5.75138 -0.40574,11.52982 0.10332,17.27692 0.65508,-0.36545 1.46642,-0.5361 1.96524,-1.09633 0.29353,-0.32965 0.17944,-0.87061 0.17918,-1.31202 0,-1.10135 -0.1369,-2.1986 -0.18217,-3.29903 -0.0831,-2.0215 -0.2237,-6.1128 -0.051,-8.14293 0.0885,-1.04087 0.35769,-2.05837 0.53652,-3.08758 0.322,-0.50006 0.45005,-1.20425 0.96597,-1.50021 0.94181,-0.54028 1.62269,1.62367 1.70952,1.74067 0.71538,0.96377 1.60065,1.7912 2.34111,2.73584 1.8541,2.36532 3.389,4.7408 5.06633,7.23053 1.35215,1.79618 2.38058,3.82188 3.72374,5.62544 0.36404,0.48879 0.66469,1.09649 1.20812,1.37245 2.70973,1.37589 3.15423,0.16904 3.30808,-2.7659 0.0682,-1.30117 -0.39026,-2.57654 -0.58539,-3.86482 -1.5399,-6.38525 -3.29173,-12.85865 -6.25554,-18.76036 -1.07511,-2.14083 -0.57947,-2.07632 -1.87757,-1.4921 0.0363,-0.0546 -0.73538,-0.56729 -0.77163,-0.51273 v 0 c -0.38475,0.27937 -0.99777,0.38909 -1.15427,0.83807 -0.51811,1.48624 0.90654,5.2374 1.1747,6.1002 1.53027,4.92377 3.27035,9.77929 4.96361,14.64816 1.59914,4.36173 -0.0177,2.81789 2.52272,3.62098 0.49355,0.15602 1.08799,0.94247 1.44534,0.56795 0.34531,-0.36189 -0.5075,-0.86243 -0.74358,-1.30344 -2.7087,-5.06021 0.17618,-0.007 -3.35479,-6.02197 -2.45507,-3.68858 -9.78802,-15.86603 -15.63425,-11.33263 -0.78283,0.60703 -1.11869,1.63515 -1.67804,2.45274 -0.28128,1.21785 -0.70165,2.41175 -0.84387,3.65355 -0.4092,3.57381 0.0127,8.69794 1.1107,12.15112 0.28313,0.89054 0.33176,2.13291 1.16895,2.54804 0.8114,0.40233 1.75676,-0.44119 2.63515,-0.66177 0.0949,-0.55007 0.25638,-1.09273 0.28461,-1.65021 0.0594,-1.17406 -0.19791,-5.44666 -0.25403,-6.34518 -0.19582,-3.13529 -0.47926,-6.26079 -0.79647,-9.38575 0.003,-0.15769 -2.22838,-0.1854 -2.23033,-0.0277 z" />
      <path
         style="fill:#1a1a1a;stroke-width:0.264583"
         id="path178"
         d="m 336.59103,311.88747 c 0.44082,-3.59788 1.65987,-9.96095 5.18848,-11.80941 0.67816,-0.35526 1.50477,-0.283 2.25714,-0.4245 1.64565,0.63439 2.7116,0.95422 4.25272,2.11791 3.68459,2.7822 5.9604,6.92269 7.99772,10.94669 0.31017,0.64592 0.62034,1.29185 0.93049,1.93778 0.0116,0.11456 1.63187,-0.0515 1.62015,-0.16608 v 0 c 0.12218,-0.89218 0.24439,-1.78433 0.36658,-2.6765 -0.2903,-1.08016 -0.4494,-2.20446 -0.87088,-3.24051 -1.75191,-4.30628 -6.69938,-10.34307 -11.34634,-11.61373 -1.49227,-0.40804 -3.08477,-0.24045 -4.62719,-0.36068 -1.11135,0.43167 -2.33688,0.64148 -3.33407,1.29501 -3.78483,2.48041 -5.15511,7.88971 -5.20901,12.11955 -0.009,0.6807 0.11859,1.35634 0.17786,2.03452 0.0114,0.18359 2.60768,0.0235 2.59635,-0.16005 z" />
      <path
         style="fill:#1a1a1a;stroke-width:0.264583"
         id="path179"
         d="m 340.19728,312.70987 c 2.8992,-0.14467 5.81795,-0.26156 8.69939,-0.63383 5.2642,-0.86879 2.66832,-0.4921 7.78616,-1.13996 0.14571,-0.0481 -0.53515,-2.10878 -0.68085,-2.06063 v 0 c -5.63978,0.20804 -11.27691,0.13298 -16.69844,1.96673 -0.13205,0.0632 0.76166,1.93088 0.89374,1.86769 z" />
      <path
         style="fill:#1a1a1a;stroke-width:0.264583"
         id="path180"
         d="m 360.05854,300.60585 c 2.34313,5.70878 4.43095,11.5157 6.25652,17.40961 0.66956,1.63996 0.4064,0.95517 0.81439,2.04464 -0.0196,0.0752 1.04288,0.35322 1.06257,0.27808 v 0 c 1.10397,-1.47942 0.63024,-0.57258 1.14615,-2.84734 -0.10388,-0.88307 -0.13872,-1.77699 -0.31163,-2.64917 -1.0836,-5.4666 -3.55558,-10.66207 -6.47441,-15.36329 -0.0797,-0.17632 -2.57333,0.95115 -2.49359,1.12747 z" />
      <path
         style="fill:#1a1a1a;stroke-width:0.264583"
         id="path181"
         d="m 362.02945,302.45118 c 0.22767,0.0674 0.45138,0.15016 0.68307,0.20217 2.63943,0.59243 1.65799,0.17666 4.60669,1.18981 3.06938,1.0546 5.94768,2.49579 8.85706,3.91707 0.81994,0.34153 1.63986,0.68308 2.45981,1.0246 0.0887,0.0845 1.28283,-1.17038 1.19411,-1.25481 v 0 c -0.61425,-0.65294 -1.22851,-1.30588 -1.84277,-1.95882 -0.91855,-0.61436 -1.79303,-1.30037 -2.75566,-1.84308 -4.20896,-2.37287 -9.11384,-3.81429 -13.95553,-3.36527 -0.14766,0.0533 0.60556,2.14159 0.75322,2.08833 z" />
      <path
         style="fill:#1a1a1a;stroke-width:0.264583"
         id="path182"
         d="m 378.06521,300.34904 c -0.96112,1.97517 -2.0792,3.89586 -2.83744,5.96485 -0.28716,0.78351 -0.46937,1.60157 -0.70406,2.40236 -0.0432,0.1119 1.53905,0.72263 1.58223,0.61077 v 0 c 0.47739,-0.71745 1.01188,-1.39999 1.43217,-2.15228 1.09664,-1.96295 1.81377,-4.12996 2.38117,-6.2947 0.0375,-0.13111 -1.81653,-0.6621 -1.85407,-0.531 z" />
      <path
         style="fill:#1a1a1a;stroke-width:0.264583"
         id="path183"
         d="m 382.49801,299.86015 c 2.57977,5.71783 4.87543,11.55856 7.16772,17.39619 0.51999,1.21309 0.94674,2.46288 1.4396,3.68657 0.0969,0.24056 0.0943,0.57169 0.31189,0.71274 0.13544,0.0878 0.27268,-0.17621 0.42217,-0.23696 0.31195,-0.12682 0.63797,-0.21577 0.95697,-0.32364 -0.033,-0.058 -0.85328,0.40838 -0.82031,0.46638 v 0 c 0.46627,0.10044 0.928,0.37751 1.39883,0.30131 1.44041,-0.23313 -0.34269,-5.08836 -0.42662,-5.59994 -2.08298,-6.16119 -4.40375,-12.38535 -8.31985,-17.64649 -0.0879,-0.15065 -2.21834,1.09318 -2.1304,1.24384 z" />
      <path
         style="fill:#1a1a1a;stroke-width:0.264583"
         id="path184"
         d="m 398.30893,301.65275 c 1.19325,4.94684 2.75987,9.79689 4.36634,14.62267 0.37801,1.07768 0.7267,2.12543 1.71659,2.75598 0,0.0675 0.95345,0.0826 0.95451,0.0151 v 0 c 0.88133,-1.20841 0.6903,-2.05598 0.37166,-3.51722 -1.28984,-5.01851 -2.78895,-10.0372 -5.13654,-14.67437 -0.0564,-0.16071 -2.32897,0.63714 -2.27256,0.79782 z" />
      <path
         style="fill:#1a1a1a;stroke-width:0.264583"
         id="path185"
         d="m 415.2965,302.09378 c -0.48593,-0.29638 -0.93697,-0.65955 -1.4578,-0.88913 -3.43032,-1.51212 -8.1779,-1.55543 -10.90472,1.41441 -0.6712,0.73099 -1.01915,1.70315 -1.52874,2.55474 -0.10715,1.0237 -0.45778,2.05089 -0.32144,3.0711 0.76407,5.71741 6.90171,8.84396 11.91366,9.93153 1.48661,0.32258 3.02294,0.34372 4.5344,0.51559 1.37972,-0.17624 2.75942,-0.35245 4.13914,-0.52866 0.14682,0.0386 0.69292,-2.0379 0.54608,-2.07653 v 0 c -1.14954,-0.19378 -2.29905,-0.38756 -3.44858,-0.58134 -4.25829,-0.74793 -12.89106,-2.07267 -14.39963,-7.0948 -0.18042,-0.60066 -0.0159,-1.25426 -0.0238,-1.8814 0.27381,-0.53486 0.42378,-1.15414 0.82147,-1.6046 0.42725,-0.48392 1.02701,-0.78732 1.58174,-1.11746 2.14071,-1.27403 4.82592,-0.58293 7.07186,0.0159 0.12226,0.10441 1.59866,-1.62502 1.47637,-1.72939 z" />
      <path
         style="fill:#1a1a1a;stroke-width:0.264583"
         id="path186"
         d="m 435.23569,300.25176 c -2.09836,-3.82916 -6.03277,-7.44707 -10.73534,-7.17561 -1.31162,0.0757 -2.55857,0.59825 -3.83786,0.89739 -0.75226,0.67675 -1.70066,1.18491 -2.25676,2.03028 -2.10524,3.20019 -0.38455,6.85003 2.45115,8.87068 3.14013,2.23756 5.89801,2.57175 9.55736,3.52317 4.51813,0.97975 9.14559,1.13122 13.71354,1.73143 0.72824,0.0957 1.45722,0.20455 2.17056,0.37957 0.0818,0.0201 0.23953,0.2281 0.16298,0.19304 -0.32501,-0.1489 -0.61687,-0.36152 -0.9253,-0.54229 -4.4333,1.3674 -9.05925,1.78814 -13.59897,2.62239 -1.8891,0.34716 -3.75272,0.82109 -5.63195,1.2182 -0.12335,-0.0331 -0.59063,1.71122 -0.46728,1.74426 v 0 c 2.36591,0.35735 5.14977,0.87511 7.54184,0.8032 3.7052,-0.11139 8.80499,-1.23984 12.14028,-2.91182 0.93789,-0.47016 1.74434,-1.16626 2.61651,-1.74937 0.2898,-0.89408 0.93266,-1.74451 0.86937,-2.68224 -0.1067,-1.58134 -2.48856,-2.24907 -3.48213,-2.53302 -4.3421,-1.24095 -8.9236,-1.3421 -13.35066,-2.09153 -3.24506,-0.56173 -8.34681,-0.88225 -10.8454,-3.38968 -0.91612,-0.91937 -1.2886,-2.00927 -0.57208,-3.19125 0.32517,-0.53646 0.93215,-0.83978 1.39824,-1.25965 0.43484,-0.21161 0.82624,-0.56364 1.30458,-0.63482 4.02431,-0.59877 7.31197,2.43504 9.8806,5.08559 0.0663,0.13411 1.96305,-0.80381 1.89672,-0.93792 z" />
      <path
         style="fill:#1a1a1a;stroke-width:0.264583"
         id="path187"
         d="m 300.50832,334.63386 c -0.45254,-0.39979 -0.8242,-0.91636 -1.35763,-1.19936 -4.29276,-2.27719 -10.08369,0.1773 -12.6311,3.98354 -0.76377,1.14123 -1.06185,2.53288 -1.59277,3.79934 0.62439,4.39534 0.22138,6.24086 3.59866,9.75569 1.47179,1.53175 3.47662,2.44189 5.21493,3.66284 0.1347,0.14967 2.25147,-1.75551 2.11675,-1.90519 v 0 c -1.80666,-1.87171 -4.9598,-4.86042 -6.32061,-7.24728 -0.54088,-0.94872 -0.71125,-2.0651 -1.06688,-3.09764 0.33542,-0.90733 0.49528,-1.9006 1.00622,-2.722 1.27097,-2.04327 2.52944,-2.50397 4.57491,-3.51211 0.48162,-0.23736 0.95099,-0.53975 1.4787,-0.63894 1.23624,-0.23238 1.71315,0.0332 2.7572,0.37338 0.0885,0.15708 2.31018,-1.09519 2.22162,-1.25227 z" />
      <path
         style="fill:#1a1a1a;stroke-width:0.264583"
         id="path188"
         d="m 324.17922,332.50473 c -0.59018,-0.13026 -1.16618,-0.39235 -1.77057,-0.39082 -1.06164,0.003 -2.14516,0.0893 -3.15926,0.40341 -3.4609,1.07204 -6.3188,4.09647 -7.77666,7.32401 -0.55586,1.23063 -0.76491,2.59012 -1.14736,3.88517 0.0347,1.38959 -0.16574,2.80525 0.10427,4.16883 0.9108,4.59975 4.38446,8.24098 8.5553,10.16037 4.27633,1.96794 5.91048,1.65028 10.47406,1.93326 0.16791,0.0658 1.09895,-2.30863 0.93105,-2.37448 v 0 c -5.1312,-1.26727 -11.65249,-2.26819 -15.01103,-6.90605 -1.68887,-2.33219 -1.39684,-3.45723 -1.59965,-6.16863 0.28051,-1.05195 0.42969,-2.14807 0.84156,-3.15587 1.45397,-3.55764 4.62447,-6.40365 8.41878,-7.10202 0.12568,0.0806 1.26518,-1.69659 1.13951,-1.77718 z" />
      <path
         style="fill:#1a1a1a;stroke-width:0.264583"
         id="path189"
         d="m 338.71841,340.90557 c 0.37471,5.16149 1.11977,10.35933 2.48301,15.35972 0.41236,1.0442 0.80148,2.72457 2.61361,-0.72229 0.32729,-0.62251 -0.31152,-1.37189 -0.48829,-2.05258 -1.04592,-4.0272 -2.17733,-8.02965 -3.20572,-12.06209 -0.31607,-2.13881 -1.83337,-6.8212 0.49956,-8.61827 1.57303,-1.21169 4.75144,-0.0449 6.36474,0.45177 2.51963,0.81426 3.32817,1.01018 5.70431,2.01761 0.68945,0.29231 1.32112,0.72398 2.0333,0.95544 0.54401,0.17682 1.13117,0.17126 1.69674,0.25688 0.0641,0.071 1.06831,-0.8359 1.00418,-0.90691 v 0 c -0.22379,-0.57433 -0.27604,-1.25008 -0.67141,-1.72297 -0.53475,-0.63965 -1.30299,-1.04717 -2.01168,-1.48635 -2.55249,-1.58178 -3.26094,-1.64936 -6.18127,-2.69645 -2.88875,-0.42179 -5.46468,-1.23176 -8.33896,-0.22375 -3.77407,1.32355 -5.0053,4.8597 -4.90878,8.54466 0.0383,1.46185 0.41169,2.89555 0.61753,4.34332 1.12043,4.18169 2.27235,8.29472 4.12676,12.22539 0.35653,0.75576 0.44247,1.85685 1.20518,2.19816 0.91503,0.40947 2.0434,0.009 2.99024,-0.32073 0.22162,-0.0771 -0.033,-0.46812 -0.0495,-0.70217 -0.72964,-5.10189 -1.86324,-10.16114 -3.08549,-15.16328 -0.023,-0.16957 -2.42104,0.15532 -2.39808,0.32489 z" />
      <path
         style="fill:#1a1a1a;stroke-width:0.264583"
         id="path190"
         d="m 340.57484,346.21642 c 2.93976,1.18155 6.15598,1.94429 9.33164,2.07846 1.58292,0.0669 3.16674,-0.11081 4.75012,-0.16624 0.16343,0.0497 0.86645,-2.26147 0.70302,-2.31119 v 0 c -1.44936,-0.21429 -2.89258,-0.47516 -4.34808,-0.64288 -3.06464,-0.35312 -6.16887,-0.38595 -9.22187,-0.86646 -0.13494,-0.0859 -1.34977,1.8224 -1.21483,1.90831 z" />
      <path
         style="fill:#1a1a1a;stroke-width:0.264583"
         id="path191"
         d="m 358.90858,335.3627 c -0.29876,2.67306 -0.25103,5.38906 0.0244,8.06265 0.14369,1.39544 0.24997,2.80488 0.58041,4.1682 0.33348,1.37578 0.93443,2.67255 1.40163,4.00883 0.023,0.15843 2.26349,-0.16746 2.24044,-0.32589 v 0 c -0.003,-1.37334 0.092,-2.75047 -0.0101,-4.12004 -0.10118,-1.35776 -0.40019,-2.69348 -0.59804,-4.04058 -0.37248,-2.53587 -0.74838,-5.07177 -1.07609,-7.61392 0.01,-0.18121 -2.55272,-0.32043 -2.56257,-0.13925 z" />
      <path
         style="fill:#1a1a1a;stroke-width:0.264583"
         id="path192"
         d="m 357.94719,339.57381 c 2.31889,-3.49771 5.98782,-5.73611 10.28909,-5.54966 0.92536,0.0401 1.81563,0.36761 2.72344,0.55139 1.24267,0.52531 2.55024,0.91787 3.728,1.57594 4.29869,2.40194 9.16313,7.40299 9.59575,12.58763 0.082,0.98325 -0.25736,1.95646 -0.38605,2.93471 -0.6242,0.75858 -1.10331,1.66486 -1.87264,2.27578 -3.78246,3.00366 -10.6812,3.56177 -15.33155,3.3401 -1.21774,-0.058 -2.42898,-0.21246 -3.64349,-0.31869 -0.89488,-0.11887 -1.78975,-0.23772 -2.68463,-0.35658 -0.10305,-0.0727 -1.13032,1.38486 -1.02724,1.45749 v 0 c 0.77769,0.65164 1.55538,1.30328 2.33304,1.95493 1.30919,0.41952 2.56673,1.06341 3.92756,1.25859 6.36746,0.91329 15.29088,-0.42108 19.82922,-5.48701 0.97203,-1.08503 1.46727,-2.51703 2.20091,-3.77555 0.13338,-1.37189 0.51964,-2.74248 0.4001,-4.11562 -0.54641,-6.27708 -5.91581,-12.16702 -11.26019,-14.98581 -1.4487,-0.76412 -3.05715,-1.17661 -4.58573,-1.76491 -1.75244,-0.10943 -3.50483,-0.43661 -5.25737,-0.32829 -4.93901,0.30533 -9.20086,3.53351 -10.90512,8.09913 -0.0457,0.13626 1.88118,0.78267 1.9269,0.64643 z" />
      <path
         style="fill:#1a1a1a;stroke-width:0.264583"
         id="path193"
         d="m 395.08824,332.16167 c 5.1512,4.41719 10.38362,9.24764 14.0816,14.98859 0.86167,1.33771 1.50505,2.804 2.25758,4.206 0.63045,2.7862 1.52027,4.31583 0.25787,7.05218 -1.11361,2.41377 -3.25959,3.29126 -5.59528,4.18902 -3.68692,1.41711 -5.37332,1.49947 -9.2307,2.1427 -1.30432,0.23958 -2.60864,0.47916 -3.91295,0.71874 -0.16071,0.0413 0.42365,2.31426 0.58438,2.27296 v 0 c 1.60242,0.23846 3.20487,0.47693 4.80732,0.7154 4.27887,-0.60997 6.62199,-0.57099 10.55473,-2.66525 4.31433,-2.29748 7.39611,-6.1953 7.18646,-11.27067 -0.0665,-1.6084 -0.69871,-3.14283 -1.04807,-4.71424 -0.81727,-1.56879 -1.50212,-3.21402 -2.45179,-4.70638 -3.47337,-5.45833 -8.52456,-10.22387 -14.03413,-13.59149 -0.69649,-0.42571 -1.45098,-0.74832 -2.17647,-1.12249 -0.1262,-0.0905 -1.40679,1.69439 -1.28055,1.78493 z" />
    </g>
  </g>
</svg>
