<?xml version="1.0" encoding="UTF-8" standalone="no"?>
<!-- Created with Inkscape (http://www.inkscape.org/) -->

<svg
   width="246.32368"
   height="79.606918"
   viewBox="0 0 65.17314 21.062664"
   version="1.1"
   id="svg1"
   inkscape:version="1.3 (0e150ed6c4, 2023-07-21)"
   sodipodi:docname="homepage_design.svg"
   xmlns:inkscape="http://www.inkscape.org/namespaces/inkscape"
   xmlns:sodipodi="http://sodipodi.sourceforge.net/DTD/sodipodi-0.dtd"
   xmlns="http://www.w3.org/2000/svg"
   xmlns:svg="http://www.w3.org/2000/svg">
  <sodipodi:namedview
     id="namedview1"
     pagecolor="#ffffff"
     bordercolor="#000000"
     borderopacity="0.25"
     inkscape:showpageshadow="2"
     inkscape:pageopacity="0.0"
     inkscape:pagecheckerboard="0"
     inkscape:deskcolor="#d1d1d1"
     inkscape:document-units="px"
     inkscape:zoom="0.63118804"
     inkscape:cx="979.10601"
     inkscape:cy="575.89812"
     inkscape:window-width="1366"
     inkscape:window-height="697"
     inkscape:window-x="1272"
     inkscape:window-y="-8"
     inkscape:window-maximized="1"
     inkscape:current-layer="layer1" />
  <defs
     id="defs1" />
  <g
     inkscape:label="Layer 1"
     inkscape:groupmode="layer"
     id="layer1"
     transform="translate(-42.442456,-62.847114)">
    <g
       id="g261"
       inkscape:export-filename="logo.svg"
       inkscape:export-xdpi="96"
       inkscape:export-ydpi="96">
      <path
         style="fill:#000000;stroke-width:0.136292"
         id="path56"
         d="m 42.446002,66.791671 c -0.0503,3.781372 0.437812,7.552463 1.236912,11.242118 0.108836,0.356674 0.158252,0.737223 0.326506,1.070016 0.450893,0.891831 1.184525,0.715825 1.978252,-0.151162 0.335358,-0.366316 0.315665,-0.943271 0.429249,-1.426746 0.361212,-1.537487 0.433437,-2.534779 0.623866,-4.1191 0.267208,-3.762244 0.04605,-0.423078 0.2264,-3.743265 0.0204,-0.375441 0.0056,-0.75565 0.07237,-1.125662 0.01118,-0.0618 0.18875,-0.162736 0.151193,-0.112405 -0.646588,0.866497 -0.633422,0.17415 0.133874,1.48629 0.991522,1.79946 1.910428,3.639291 2.972486,5.399531 0.392057,0.649787 1.217247,2.043344 1.899797,2.568055 0.2654,0.204028 0.61856,0.256225 0.92784,0.384335 0.46393,-0.347159 1.11675,-0.531479 1.3918,-1.041483 0.4299,-0.797152 0.13165,-3.780018 0.0539,-4.419554 -0.2142,-1.762898 -0.58734,-3.482583 -1.10663,-5.179729 -0.20468,-0.66894 -0.47623,-1.315563 -0.71435,-1.973344 -0.25412,-0.414459 -0.50824,-0.828919 -0.762363,-1.243377 -0.01525,-0.06171 -0.887999,0.154225 -0.872731,0.215937 v 0 c 0.0055,0.459589 0.01102,0.919179 0.01659,1.378767 0.37766,2.357211 0.887422,4.677116 1.344394,7.019657 0.14564,0.746583 0.2818,1.495031 0.41262,2.244349 0.0812,0.465302 -10e-4,0.983672 0.2235,1.399286 0.12673,0.234688 0.48019,0.232324 0.72029,0.348488 -0.0928,-0.0021 -0.21211,0.05881 -0.27824,-0.0063 -0.53577,-0.527132 -1.24069,-1.956511 -1.531928,-2.485307 -1.024335,-1.859823 -2.017284,-3.744464 -3.242367,-5.483896 -0.364303,-0.412015 -0.605806,-0.980692 -1.092908,-1.236044 -1.889561,-0.990561 -2.31577,0.318049 -2.552308,1.729664 -0.169284,1.010289 -0.307593,2.730798 -0.39827,3.707341 -0.385622,4.829094 0.02627,-0.387643 -0.307467,4.003646 -0.02988,0.393108 -0.283925,0.833097 -0.09465,1.178933 0.169595,0.30988 0.645321,0.287782 0.971546,0.423305 0.0093,0.0036 -0.0101,-0.01731 -0.01515,-0.02596 -0.04322,-0.346721 -0.08644,-0.693443 -0.12966,-1.040164 -0.470546,-3.713078 -0.943934,-7.432021 -1.640008,-11.110257 -0.0088,-0.09718 -1.383155,0.02683 -1.374386,0.124011 z" />
      <path
         style="fill:#000000;stroke-width:0.136292"
         id="path57"
         d="m 55.529647,69.571179 c -0.0857,2.344265 0.26906,4.886672 1.80309,6.774033 0.38689,0.475991 0.84299,0.922765 1.38272,1.214204 0.48841,0.263725 1.07687,0.269757 1.61529,0.404636 0.64099,-0.260187 1.39817,-0.329826 1.92295,-0.78055 0.50233,-0.431438 0.80086,-1.087489 0.99065,-1.721879 0.67943,-2.271109 -0.16318,-5.182864 -1.56657,-7.015954 -0.46177,-0.603159 -1.11937,-1.027195 -1.67906,-1.540792 -0.62148,-0.1812 -1.24295,-0.3624 -1.86442,-0.5436 -0.0576,-0.03962 -0.61796,0.774751 -0.56037,0.814374 v 0 c 0.36623,0.257857 0.73247,0.515713 1.09871,0.773569 0.40272,0.432089 0.86703,0.814071 1.20816,1.296269 1.05643,1.493283 1.97501,3.704145 1.76501,5.576212 -0.0717,0.638794 -0.42135,1.173694 -0.72796,1.709032 -0.33852,-0.0099 -0.70491,0.105223 -1.01556,-0.02967 -0.429,-0.186283 -0.78517,-0.529048 -1.08934,-0.884331 -1.43003,-1.670316 -1.65007,-3.955844 -2.09179,-6.013832 0.002,-0.08425 -1.18927,-0.115983 -1.19151,-0.03173 z" />
      <path
         style="fill:#000000;stroke-width:0.136292"
         id="path58"
         d="m 64.570557,68.837138 c -0.15917,2.988979 0.30729,5.992846 1.10866,8.867129 0.0836,0.206908 0.0393,0.691826 0.25084,0.620719 1.66761,-0.560594 1.13771,-1.499002 0.96961,-2.726362 -0.10371,-0.757277 -0.22264,-1.51239 -0.33186,-2.268894 -0.4714,-3.265243 -0.29828,-1.77811 -0.57053,-5.018387 0.0909,-0.758708 -0.21044,-3.756499 1.14708,-3.991164 0.1394,-0.0241 0.19579,0.204304 0.29656,0.303597 1.04803,1.032664 0.58314,0.345707 1.19167,1.960941 0.0112,0.542479 0.0907,1.087844 0.0337,1.627437 -0.16521,1.563789 -0.84838,3.103928 -1.87961,4.287904 -0.19521,0.224113 -0.86895,0.749174 -1.16433,0.984455 -0.0713,0.196168 -0.27668,0.389415 -0.21396,0.588498 0.31037,0.985124 0.89059,1.114394 1.70204,1.4836 1.59766,0.726926 1.01117,0.48975 2.84802,0.923269 0.056,0.03889 0.6061,-0.753465 0.55007,-0.792362 v 0 c -1.42026,-1.02571 -0.96532,-0.841195 -2.54448,-1.443987 -0.31944,-0.121929 -0.63515,-0.375522 -0.97318,-0.324144 -0.0657,0.01 -0.28268,0.525257 -0.35637,0.695385 0.71043,-0.382589 1.09724,-0.536893 1.71264,-1.199481 1.31287,-1.413539 2.11905,-3.387662 2.17153,-5.318946 0.0194,-0.714686 -0.16409,-1.420452 -0.24614,-2.130676 -0.57092,-1.104241 -0.92759,-2.425088 -2.33503,-2.819824 -0.63463,-0.177989 -1.35704,-0.124417 -1.9745,0.106208 -1.91453,0.715097 -1.93581,3.644795 -2.0671,5.204732 0.21382,2.640799 0.12267,2.613807 0.6883,5.20735 0.16549,0.758812 0.36768,1.509536 0.57996,2.256609 0.37295,1.312524 0.28075,2.176245 2.05399,2.084873 0.19522,-0.01005 -0.0704,-0.384547 -0.10564,-0.57682 -0.51389,-2.856198 -0.97259,-5.721307 -1.39975,-8.591659 0,-0.08077 -1.14221,-0.08077 -1.14221,0 z" />
      <path
         style="fill:#000000;stroke-width:0.136292"
         id="path59"
         d="m 71.297547,69.125501 c 0.41952,1.697174 0.83726,3.395182 1.34842,5.067862 0.15184,0.496859 0.28594,1.001027 0.48119,1.482483 0.1614,0.397971 0.3903,0.765096 0.58545,1.14765 0.0123,0.05957 0.85475,-0.114568 0.84244,-0.174136 v 0 c -0.006,-0.431361 0.0356,-0.866138 -0.019,-1.294078 -0.0663,-0.519575 -0.21154,-1.026391 -0.34166,-1.533758 -0.44465,-1.733773 -1.03028,-3.442233 -1.82264,-5.048758 -0.0249,-0.07596 -1.09917,0.276776 -1.07423,0.352735 z" />
      <path
         style="fill:#000000;stroke-width:0.136292"
         id="path60"
         d="m 75.501997,69.898128 c -0.76533,1.463527 -1.8471,2.713876 -3.22005,3.629979 -0.0902,0.03147 -0.35242,0.04533 -0.2705,0.09442 0.26232,0.157271 0.61178,0.11723 0.87717,0.269289 0.13012,0.07455 0.10452,0.331654 0.24797,0.375393 0.20169,0.06149 0.41278,-0.09304 0.62297,-0.109839 0.84493,-0.06755 0.86619,-0.02292 1.63192,0.09795 1.58368,0.319132 0.7923,0.163215 2.37412,0.467816 0.0493,0.03353 0.52342,-0.662856 0.47418,-0.696385 v 0 c -1.40909,-1.014605 -0.62947,-0.599733 -2.3578,-1.208315 -0.93832,-0.06159 -2.92529,-0.322218 -3.72765,0.530892 -0.23392,0.248715 -0.55718,0.605832 -0.43818,0.925865 0.32225,0.866632 1.0498,0.476037 1.50883,0.320708 0.22639,-0.136357 0.46774,-0.250507 0.67918,-0.409066 1.3183,-0.988602 2.23827,-2.451433 2.59205,-4.052664 0.0167,-0.0703 -0.97752,-0.306341 -0.99421,-0.23604 z" />
      <path
         style="fill:#000000;stroke-width:0.136292"
         id="path61"
         d="m 78.501687,69.230049 c -0.12024,2.650599 0.20624,5.309815 0.68254,7.913614 0.058,0.22929 0.0734,0.473817 0.17404,0.687864 0.0247,0.05251 0.0281,-0.123494 0.0756,-0.156802 0.35855,-0.251358 0.94945,-0.280513 1.12218,-0.682888 0.18396,-0.428554 -0.15172,-0.920385 -0.23714,-1.378867 -0.3608,-1.936647 -0.44052,-2.215219 -0.88003,-4.206387 -0.0388,-0.163591 -0.84948,-3.561335 -0.9183,-3.915824 -0.0289,-0.148924 -0.36353,-1.408704 -0.0221,-1.777511 0.2838,-0.306629 0.25898,0.267466 0.26342,0.35515 1.37036,0.690047 2.72514,1.415949 4.03809,2.21026 0.0386,0.04406 0.66173,-0.502402 0.62309,-0.546461 v 0 c -1.21858,-1.467284 -2.19819,-2.431716 -4.05672,-3.072105 -0.50286,-0.01108 -1.02264,-0.16304 -1.5086,-0.03324 -2.43627,0.650732 -0.72052,5.767007 -0.45501,7.192955 0.49425,1.863459 0.6018,2.40589 1.20676,4.183634 0.15668,0.460445 0.16468,1.027488 0.5145,1.365396 0.39533,0.381868 0.9885,0.526179 1.53156,0.610973 0.33924,0.05297 -0.0813,-1.337745 0.0772,-1.027133 -0.28767,-2.590071 -0.62687,-5.17819 -1.07167,-7.745884 -0.002,-0.08198 -1.16102,-0.05872 -1.15937,0.02326 z" />
      <path
         style="fill:#000000;stroke-width:0.136292"
         id="path62"
         d="m 79.660607,73.211015 c 1.1473,0.05179 0.52763,0.05673 1.8584,-0.04976 0.0529,0.0153 0.26916,-0.733365 0.21622,-0.748654 v 0 c -1.24056,-0.199145 -0.65428,-0.142312 -1.75619,-0.195802 -0.0703,-0.02251 -0.38874,0.971711 -0.31843,0.994227 z" />
      <path
         style="fill:#000000;stroke-width:0.136292"
         id="path63"
         d="m 83.783537,68.555192 c 0.22444,1.652069 0.42123,3.311635 0.71359,4.953696 0.0798,0.447963 0.146,0.900238 0.26958,1.338141 0.10486,0.371571 0.27559,0.721317 0.41338,1.081977 0.20515,0.254212 0.35367,0.567234 0.61544,0.762645 0.73709,0.550235 1.44448,0.491176 2.30408,0.22182 0.86137,-0.269912 1.53826,-1.157916 2.12694,-1.785738 0.0364,-0.03503 -0.45909,-0.54991 -0.49549,-0.514877 v 0 c -0.2655,0.115861 -0.52919,0.235925 -0.79648,0.347582 -0.20008,0.08358 -1.23182,0.467991 -1.48635,0.645954 -0.16781,0.117334 0.0716,0.492521 -0.42521,0.276223 -0.15942,-0.06941 -0.22969,-0.261104 -0.34454,-0.391661 -0.0956,-0.30221 -0.21332,-0.598311 -0.28692,-0.906631 -0.50004,-2.094748 -0.59027,-4.299008 -1.41813,-6.312817 -0.02,-0.08414 -1.20994,0.199547 -1.18989,0.283686 z" />
      <path
         style="fill:#000000;stroke-width:0.136292"
         id="path64"
         d="m 89.864407,69.377899 c -0.13711,0.256461 -0.31283,0.49576 -0.41133,0.769382 -0.69228,1.922977 -0.29672,4.269397 1.39766,5.57099 0.48123,0.36967 1.08767,0.538449 1.63151,0.807676 0.76863,0.0391 1.5498,0.260882 2.3059,0.117226 2.47049,-0.469392 3.52247,-3.012706 3.38246,-5.270902 -0.14749,-2.378777 -0.84508,-2.956769 -2.05538,-4.90237 -1.83367,-1.454718 -1.97938,-2.087683 -4.45206,-2.058616 -0.79741,0.0094 -1.5593,0.3353 -2.33894,0.502951 -0.0693,0.02872 0.33691,1.008615 0.4062,0.979893 v 0 c 0.42043,-0.03664 0.84402,-0.173097 1.26128,-0.109944 1.5002,0.227047 1.95085,0.835639 3.13907,1.744825 0.41772,0.587932 0.92148,1.123373 1.25316,1.763796 0.71763,1.385615 1.29303,3.651517 0.0982,4.999888 -0.62669,0.707223 -1.29072,0.709896 -2.10471,0.855711 -0.4191,-0.123031 -0.87541,-0.157096 -1.2573,-0.369093 -1.66538,-0.924516 -1.64613,-3.21384 -1.1441,-4.782188 0.0438,-0.0786 -1.06784,-0.697828 -1.11163,-0.619225 z" />
      <path
         style="fill:#000000;stroke-width:0.136292"
         id="path65"
         d="m 98.361927,68.271306 c -0.11299,2.593094 0.0735,5.209668 0.67516,7.736766 0.237528,0.616526 0.309568,1.241139 1.511473,0.753151 0.36032,-0.146294 0.42454,-0.654985 0.58635,-1.008609 0.74365,-1.625129 1.1251,-3.435635 1.56544,-5.156514 0.29687,-0.981873 0.41704,-2.011153 0.70664,-2.995249 0.0614,-0.208692 0.38945,-0.43703 0.24908,-0.603219 -0.12465,-0.147575 -0.34711,0.206568 -0.44199,0.374837 -0.15305,0.271431 0.37643,1.582275 0.38502,1.60933 0.48547,1.654047 0.90355,3.326418 1.4006,4.977175 0.0267,0.08867 0.53503,1.749773 0.68097,2.040681 0.077,0.153397 0.20944,0.271937 0.31416,0.407902 0.48744,-0.254407 1.13173,-0.32386 1.46231,-0.763216 0.27048,-0.359502 0.10969,-0.894355 0.12321,-1.344039 0.0192,-0.639047 0.004,-1.279149 -0.0252,-1.917835 -0.10753,-2.384138 -0.46708,-4.70461 -0.88158,-7.050273 -0.49169,-1.976852 -0.0831,-1.195898 -0.97747,-2.45688 -0.002,-0.05191 -0.73593,-0.02567 -0.73407,0.02623 v 0 c -0.73206,1.50981 -0.51288,0.633958 -0.37357,2.6827 0.25873,2.318525 0.56867,4.622331 0.90661,6.930516 0.0884,0.603653 0.17254,1.207918 0.26011,1.81169 0.0542,0.373863 -0.11236,0.865004 0.16526,1.121214 0.32602,0.30087 0.87279,0.159676 1.30918,0.239515 -0.42686,-2.475453 -1.0823,-4.917489 -1.96687,-7.268959 -0.26687,-0.546809 -0.88328,-2.19385 -1.68089,-2.412261 -1.98206,-0.542748 -2.44989,3.131818 -2.78949,4.193921 -0.38298,1.586022 -0.52522,2.113298 -0.849695,3.695971 -0.15979,0.779396 -0.82858,2.289237 0.661745,2.336798 0.15095,0.0046 -0.0316,-0.300387 -0.0475,-0.45058 -0.28785,-2.514684 -0.49659,-5.038022 -0.838475,-7.546114 -0.003,-0.09592 -1.359048,-0.06058 -1.356548,0.03534 z" />
      <path
         style="fill:#000000;stroke-width:0.136292"
         id="path66"
         d="m 51.981827,82.986268 c 8.79121,1.11828 17.68662,0.99042 26.52768,0.78998 4.40306,-0.1651 8.79905,-0.46097 13.17515,-0.97585 1.5883,-0.18687 3.14945,-0.39337 4.7039,-0.76269 0.21128,-0.0708 1.57217,-0.43483 -0.44837,-0.71231 -0.17477,-0.024 -0.007,0.3686 0.0766,0.52369 0.24583,0.45344 0.89801,0.47655 1.32754,0.53925 0.34521,-0.0435 1.29915,0.1718 1.59798,0.004 0.0823,-0.0462 0.12117,-0.14483 0.181748,-0.21725 0.0437,0.0112 0.20279,-0.60749 0.15904,-0.61874 v 0 c -0.0174,-0.0724 0.003,-0.16735 -0.052,-0.21733 -0.1477,-0.13364 -1.271678,-0.0492 -1.503058,-0.0954 -0.0114,-1.4e-4 -0.64834,-0.0212 -0.69532,0.007 -0.0515,0.0314 0.0259,0.53176 -0.066,0.45282 -1.24228,-1.06756 -0.0809,-0.78026 -0.99386,-0.93591 -1.64488,-0.11258 -3.28614,-0.0961 -4.93485,-0.10541 -4.45983,-0.025 -8.91969,-0.0349 -13.37928,0.0405 -8.45882,0.18589 -16.91976,0.45178 -25.358555,1.07962 -0.08509,-0.0225 -0.403498,1.18083 -0.318405,1.20335 z" />
    </g>
  </g>
</svg>
