<?xml version="1.0" encoding="UTF-8" standalone="no"?>
<!-- Created with Inkscape (http://www.inkscape.org/) -->

<svg
   width="251.8871"
   height="79.926331"
   viewBox="0 0 66.645127 21.147175"
   version="1.1"
   id="svg1"
   inkscape:version="1.3 (0e150ed6c4, 2023-07-21)"
   sodipodi:docname="homepage_design.svg"
   xmlns:inkscape="http://www.inkscape.org/namespaces/inkscape"
   xmlns:sodipodi="http://sodipodi.sourceforge.net/DTD/sodipodi-0.dtd"
   xmlns="http://www.w3.org/2000/svg"
   xmlns:svg="http://www.w3.org/2000/svg">
  <sodipodi:namedview
     id="namedview1"
     pagecolor="#ffffff"
     bordercolor="#000000"
     borderopacity="0.25"
     inkscape:showpageshadow="2"
     inkscape:pageopacity="0.0"
     inkscape:pagecheckerboard="0"
     inkscape:deskcolor="#d1d1d1"
     inkscape:document-units="px"
     inkscape:zoom="0.63118804"
     inkscape:cx="979.10601"
     inkscape:cy="575.89812"
     inkscape:window-width="1366"
     inkscape:window-height="697"
     inkscape:window-x="1272"
     inkscape:window-y="-8"
     inkscape:window-maximized="1"
     inkscape:current-layer="layer1" />
  <defs
     id="defs1" />
  <g
     inkscape:label="Layer 1"
     inkscape:groupmode="layer"
     id="layer1"
     transform="translate(-42.435902,-113.66092)">
    <g
       id="g260">
      <path
         style="fill:#1a1a1a;stroke-width:0.0804959"
         id="path94"
         d="m 43.109674,114.64097 c -0.3554,2.92632 -0.52511,5.87339 -0.65511,8.81743 -0.003,0.18682 -0.0546,1.48251 0.028,1.83856 0.0222,0.0958 0.11296,0.16105 0.16943,0.24158 -0.004,0.023 0.32134,0.08 0.32537,0.057 v 0 c 0.0891,-0.0754 0.21405,-0.12238 0.26736,-0.22624 0.20864,-0.40642 0.33108,-1.51807 0.38143,-1.84048 0.29158,-2.94966 0.4735,-5.92868 0.20661,-8.88782 0,-0.0511 -0.72307,-0.0511 -0.72307,0 z" />
      <path
         style="fill:#1a1a1a;stroke-width:0.0804959"
         id="path95"
         d="m 43.538234,116.2841 c 0.92319,0.87862 1.70924,1.9041 2.67192,2.74203 0.27939,0.24319 0.59055,0.44728 0.88583,0.67093 0.0266,0.0354 0.52753,-0.34021 0.50097,-0.37563 v 0 c -0.20267,-0.29409 -0.38366,-0.60438 -0.60802,-0.88228 -0.82861,-1.02631 -1.85902,-1.90991 -2.9316,-2.66823 -0.0363,-0.0367 -0.55538,0.47647 -0.5191,0.51318 z" />
      <path
         style="fill:#1a1a1a;stroke-width:0.0804959"
         id="path96"
         d="m 48.659954,115.45382 c -0.88106,0.94184 -1.65283,2.03047 -2.22866,3.18717 -0.18769,0.37705 -0.32289,0.77803 -0.48433,1.16705 -0.0204,0.0443 0.60598,0.33347 0.62643,0.28917 v 0 c 0.25164,-0.34114 0.5195,-0.67088 0.75491,-1.02341 0.68851,-1.03106 1.21782,-2.15772 1.87414,-3.20774 0.0292,-0.0384 -0.51334,-0.4506 -0.54249,-0.41224 z" />
      <path
         style="fill:#1a1a1a;stroke-width:0.0804959"
         id="path97"
         d="m 48.651524,116.60427 c 0.43078,2.09774 0.94963,4.17557 1.52516,6.23797 0.11944,0.39807 0.37763,1.30787 0.55529,1.7437 0.0547,0.13429 0.10315,0.27959 0.20292,0.38484 0.0501,0.0529 0.14136,0.0353 0.21204,0.0529 10e-4,0.02 0.28415,0.001 0.28283,-0.0187 v 0 c 0.0651,-0.0529 0.16681,-0.0798 0.19539,-0.15869 0.1892,-0.52235 -0.26589,-1.76351 -0.31437,-2.25557 -0.53202,-2.1055 -1.06381,-4.24067 -1.95279,-6.2279 -0.0171,-0.05 -0.72355,0.19149 -0.70647,0.24144 z" />
      <path
         style="fill:#1a1a1a;stroke-width:0.0804959"
         id="path107"
         d="m 54.161464,116.3088 c -0.0864,0.15988 -0.18253,0.31491 -0.25932,0.47964 -0.90366,1.9385 -1.45557,4.1578 -1.9875,6.22312 -0.17025,0.7024 -0.30243,1.15866 -0.4041,1.84294 -0.0169,0.11337 -0.13272,0.30528 -0.0245,0.34299 0.24229,0.0844 0.57774,0.0903 0.76496,-0.0851 0.22255,-0.20854 0.18758,-0.5809 0.26155,-0.87678 0.12035,-0.4814 0.21405,-0.96908 0.32107,-1.45361 0.35439,-1.73737 0.6649,-3.48377 0.9234,-5.23802 0.12119,-0.82245 0.24036,-1.65106 0.29235,-2.48148 -0.0393,0.0434 -0.0786,0.0868 -0.11784,0.13014 -0.21716,-1.7e-4 -0.49714,-0.15319 -0.65147,-3.1e-4 -0.13511,0.13375 0.0363,0.37986 0.0817,0.56448 0.24545,0.9987 0.77194,1.89989 1.24984,2.79818 0.61844,1.09602 1.28761,2.16242 1.96384,3.22338 0.37172,0.5832 0.72747,1.16271 1.18752,1.67942 0.0799,0.004 0.15969,0.008 0.23954,0.0113 0.005,0.02 0.28704,-0.0503 0.28207,-0.0703 v 0 c 0.0557,-0.0771 0.1113,-0.15424 0.16695,-0.23136 -0.0329,-0.13718 -0.0492,-0.27945 -0.0988,-0.41154 -0.1526,-0.40673 -0.56755,-1.14984 -0.75639,-1.48258 -0.61671,-1.0867 -1.28612,-2.14256 -1.94366,-3.20461 -0.27052,-0.43897 -0.86073,-1.37904 -1.12378,-1.86693 -0.10979,-0.20364 -0.20484,-0.41503 -0.29909,-0.62631 -0.21769,-0.48798 -0.12241,-0.63556 -0.82681,-0.87102 -0.0818,-0.0274 -0.12192,0.12203 -0.18289,0.18305 -0.34823,0.78877 -0.54159,1.62622 -0.72576,2.46736 -0.38119,1.74099 -0.66332,3.5026 -0.86308,5.27341 -0.0427,0.49661 -0.10315,0.99201 -0.1281,1.48983 -0.0162,0.32365 -0.16334,0.6951 0.005,0.97217 0.13848,0.22827 0.48536,0.28637 0.75214,0.27547 0.1148,-0.005 0.10467,-0.20503 0.14614,-0.31218 0.25183,-0.65067 0.36489,-1.10075 0.57212,-1.80186 0.63109,-2.22361 1.18867,-4.46534 1.75976,-6.70474 0.0169,-0.0408 -0.55979,-0.2789 -0.57663,-0.23812 z" />
      <path
         style="fill:#1a1a1a;stroke-width:0.0804959"
         id="path108"
         d="m 54.138214,121.32536 c 1.3051,0.11751 2.60819,0.13434 3.91464,0.0456 0.0362,0.0114 0.19756,-0.50065 0.16135,-0.51205 v 0 c -0.26447,-0.0546 -0.52651,-0.12266 -0.79342,-0.16369 -1.14997,-0.17679 -2.3288,-0.1461 -3.47924,0.005 -0.0442,0.0139 0.15245,0.63929 0.19667,0.62538 z" />
      <path
         style="fill:#1a1a1a;stroke-width:0.0804959"
         id="path109"
         d="m 61.563374,116.22111 c -0.23935,-0.005 -0.48212,-0.0569 -0.71806,-0.0163 -1.27031,0.21889 -2.10559,1.53672 -2.27781,2.72489 -0.0581,0.40061 -0.002,0.80959 -0.004,1.21439 0.11634,0.40115 0.17865,0.82209 0.349,1.20345 0.52078,1.1658 1.51194,2.0269 2.71544,2.4337 0.35705,0.12069 0.73276,0.21585 1.10966,0.21708 0.41567,10e-4 0.81954,-0.13963 1.22931,-0.20944 0.0394,-0.0116 -0.12485,-0.56861 -0.16423,-0.55699 v 0 c -0.22273,-0.0433 -1.43118,-0.27465 -1.55207,-0.31544 -0.95675,-0.32284 -1.76999,-0.94914 -2.23092,-1.8594 -0.14944,-0.2951 -0.21736,-0.62482 -0.32604,-0.93723 -0.0196,-0.31401 -0.0845,-0.62847 -0.0587,-0.94203 0.0622,-0.75768 0.41738,-1.48563 1.03906,-1.92994 0.18233,-0.13031 0.4073,-0.18995 0.59903,-0.30527 0.051,0.0205 0.34099,-0.70098 0.28997,-0.72148 z" />
      <path
         style="fill:#1a1a1a;stroke-width:0.0804959"
         id="path110"
         d="m 62.716514,117.02351 c -0.053,1.4528 0.0681,2.91357 0.30631,4.347 0.0625,0.37632 0.12166,0.75486 0.22469,1.12216 0.0797,0.28435 0.21442,0.55035 0.32162,0.82552 0.0868,0.16026 0.1737,0.32052 0.26056,0.48079 0.006,0.0295 0.42363,-0.0528 0.41781,-0.0823 v 0 c 0.009,-0.17051 0.0177,-0.34102 0.0266,-0.51153 -10e-6,-0.28458 0.0205,-0.5699 -6e-5,-0.85374 -0.027,-0.3724 -0.0917,-0.74112 -0.14213,-1.11108 -0.19319,-1.41715 -0.40975,-2.83134 -0.64944,-4.24134 -0.002,-0.0542 -0.7677,-0.0296 -0.76597,0.0245 z" />
      <path
         style="fill:#1a1a1a;stroke-width:0.0804959"
         id="path111"
         d="m 63.222814,120.16661 c 1.41668,-0.21813 2.84868,-0.31546 4.25924,-0.57504 0.61281,-0.15989 0.76732,-0.19958 1.06925,-0.73183 0.0121,-0.0198 -0.26778,-0.19157 -0.27993,-0.17178 v 0 c -0.31878,0.22921 -0.6768,0.0765 -1.06442,0.20708 -1.42998,0.16525 -2.89509,0.28464 -4.25712,0.77738 -0.0349,0.0193 0.23804,0.5135 0.27298,0.49419 z" />
      <path
         style="fill:#1a1a1a;stroke-width:0.0804959"
         id="path112"
         d="m 66.198324,116.86905 c -0.0405,0.19769 -0.0975,0.39271 -0.12163,0.59305 -0.23345,1.93496 0.11736,3.90111 0.54548,5.78148 0.3438,0.99717 0.0915,0.59269 0.67361,1.26159 0.008,0.0292 0.42069,-0.0849 0.41262,-0.11408 v 0 c 0.10457,-0.79167 0.0973,-0.35097 -0.0579,-1.32102 -0.35037,-2.00203 -0.69775,-4.0217 -0.74309,-6.0574 0.0102,-0.0501 -0.69892,-0.19375 -0.70907,-0.14362 z" />
      <path
         style="fill:#1a1a1a;stroke-width:0.0804959"
         id="path113"
         d="m 68.630904,117.93277 c 0.005,2.01416 0.24646,4.02636 0.62556,6.00263 0.0963,0.17564 0.19268,0.35129 0.28901,0.52694 0.002,0.0313 0.44406,0.007 0.44234,-0.0244 v 0 c 0.0719,-0.1958 0.14385,-0.3916 0.21578,-0.58741 -0.0475,-2.00877 -0.34341,-4.00009 -0.72934,-5.97019 -0.004,-0.0596 -0.84707,-0.007 -0.84335,0.0524 z" />
      <path
         style="fill:#1a1a1a;stroke-width:0.0804959"
         id="path114"
         d="m 69.831134,118.89883 c 0.16649,1.51068 0.27203,3.0284 0.46259,4.5368 0.17876,0.33501 0.26523,0.63583 0.89334,-0.19211 0.1612,-0.21248 0.0626,-0.52997 0.0803,-0.7961 0.0744,-1.12238 0.0569,-2.24932 0.0496,-3.37318 0.006,-0.19308 0,-1.14939 0.11462,-1.438 0.0208,-0.0523 0.13247,-0.11104 0.15755,-0.0607 0.0412,0.0829 -0.0969,0.19182 -0.052,0.27277 0.12113,0.21846 0.35312,0.35487 0.50845,0.55048 0.23888,0.30082 0.44804,0.62408 0.67206,0.93612 0.72517,1.07768 1.25877,2.26064 1.84119,3.41566 0.12425,0.2464 0.23767,0.50026 0.39078,0.72985 0.0793,0.11889 0.1585,0.3253 0.3001,0.30613 0.33545,-0.0454 0.60061,-0.31245 0.90091,-0.46868 0.12443,-1.27095 0.0391,-2.5544 -0.0761,-3.82252 -0.0455,-0.50045 -0.0894,-1.00177 -0.16717,-1.49823 -0.11146,-0.71162 -0.31064,-1.43807 -0.48955,-2.1378 -0.002,-0.0397 -0.56363,-0.0124 -0.5617,0.0273 v 0 c -0.10872,0.81413 -0.20315,1.34446 -0.19438,2.2041 0.005,0.50174 0.0579,1.00201 0.10133,1.50189 0.10423,1.19876 0.24562,2.40019 0.48601,3.57996 0.2602,0.052 0.51664,0.1831 0.7806,0.15601 0.081,-0.008 -0.0603,-0.15121 -0.0903,-0.22688 -0.0987,-0.24895 -0.19583,-0.49849 -0.29566,-0.74698 -0.51565,-1.28365 -1.08305,-2.53847 -1.93272,-3.64515 -0.35387,-0.41234 -1.12518,-1.44737 -1.7223,-1.66932 -1.6277,-0.60501 -1.71381,0.94948 -1.80859,2.03107 -0.0142,1.12992 -0.0198,2.25686 0.0781,3.38407 0.0225,0.25916 -0.0721,0.57525 0.095,0.77461 0.65764,0.78457 0.72354,0.46289 0.8336,0.15171 -0.0305,-1.56616 -0.22941,-3.16403 -0.73536,-4.65015 -0.0118,-0.0439 -0.63217,0.1234 -0.62035,0.16726 z" />
      <path
         style="fill:#1a1a1a;stroke-width:0.0804959"
         id="path115"
         d="m 76.979004,117.05713 c 0.12855,1.87873 0.38988,3.74531 0.69949,5.60183 0.0268,0.11974 -0.0393,0.38614 0.0804,0.35921 0.98897,-0.22248 0.74421,-0.7036 0.70668,-1.41353 -0.0218,-0.41282 -0.047,-0.82547 -0.0751,-1.2379 -0.11834,-1.73312 -0.0952,-1.35952 -0.28011,-3.09307 -0.15875,-1.22109 -0.15828,-1.32 -0.34777,-2.43952 -0.037,-0.21882 -0.0854,-0.43564 -0.12159,-0.65459 -0.008,-0.0498 0.0336,-0.17344 -0.0117,-0.15105 -0.64301,0.3181 -0.40754,0.34793 -0.0902,0.72249 0.66357,0.67196 1.33123,1.39154 2.14202,1.8935 0.26076,0.16144 0.55319,0.265 0.82977,0.3975 0.0266,0.0284 0.42868,-0.34724 0.40212,-0.37567 v 0 c -0.17186,-0.22739 -0.31989,-0.47492 -0.51558,-0.68216 -0.22333,-0.23654 -0.48899,-0.42918 -0.73488,-0.64218 -0.78307,-0.67834 -0.63972,-0.55253 -1.40857,-1.18589 -0.54776,-0.42582 -0.62557,-0.70533 -1.42427,-0.2932 -0.12007,0.062 -0.12317,0.2456 -0.14321,0.37923 -0.034,0.22682 -0.0217,0.45856 -0.0168,0.68786 0.0182,0.85403 0.10082,1.60058 0.17617,2.46013 0.1881,1.6667 0.14317,1.43382 0.40388,3.08632 0.0653,0.41411 0.13039,0.82841 0.20898,1.24021 0.1404,0.73575 0.0504,1.26967 1.09915,1.23702 0.12731,-0.004 0.006,-0.25468 0.009,-0.38202 -0.12976,-1.89054 -0.37825,-3.78306 -0.85247,-5.61978 -0.007,-0.052 -0.74299,0.0533 -0.73554,0.10526 z" />
      <path
         style="fill:#1a1a1a;stroke-width:0.0804959"
         id="path116"
         d="m 78.250744,119.39608 c 0.97437,0.47996 2.04652,0.51065 3.10712,0.57421 0.0357,0.0141 0.23534,-0.4908 0.19964,-0.50491 v 0 c -0.97729,-0.24338 -1.94635,-0.51306 -2.94604,-0.65207 -0.0412,-0.0255 -0.40192,0.55727 -0.36072,0.58277 z" />
      <path
         style="fill:#1a1a1a;stroke-width:0.0804959"
         id="path117"
         d="m 79.131054,122.75256 c 0.86491,0.19642 1.74909,0.13008 2.62513,0.0892 0.0406,0.0118 0.20776,-0.56203 0.16719,-0.57386 v 0 c -0.84825,-0.10889 -1.69889,-0.22626 -2.55711,-0.17577 -0.0467,-0.0166 -0.28192,0.64381 -0.23521,0.66044 z" />
      <path
         style="fill:#1a1a1a;stroke-width:0.0804959"
         id="path118"
         d="m 57.675944,128.137 c 0.17866,1.69085 0.39968,3.37663 0.5546,5.07008 0.0336,0.3807 0.0535,0.76249 0.0854,1.14332 0.009,0.10221 0.0206,0.29385 0.0538,0.30094 0.83256,0.17789 0.64182,0.25804 1.02374,-0.0547 0.14209,-0.0476 0.28081,-0.10673 0.42626,-0.14277 1.11361,-0.27588 2.25954,-0.45377 3.38689,-0.66171 0.37094,-0.0684 0.74554,-0.11978 1.11244,-0.20729 0.27844,-0.0664 0.54695,-0.16916 0.82043,-0.25373 0.15999,-0.0672 0.31998,-0.13447 0.47997,-0.2017 0.0294,-0.01 -0.10965,-0.42595 -0.13907,-0.41611 v 0 c -0.20291,-0.0364 -0.40581,-0.0728 -0.60873,-0.10918 -0.31708,-0.0128 -0.63418,-0.0515 -0.95124,-0.0383 -1.39324,0.0583 -3.47544,0.47258 -4.71546,1.11987 -0.19306,0.10079 -0.35231,0.25612 -0.52846,0.38417 -0.0609,0.0803 -0.25077,0.16662 -0.1826,0.24077 0.82438,0.89678 0.76946,0.0152 0.77663,-0.44472 0.004,-0.24239 -0.005,-0.48481 -0.008,-0.72722 -0.11582,-1.73778 -0.32521,-3.48306 -0.86528,-5.14658 -0.0103,-0.051 -0.73161,0.0938 -0.72137,0.14484 z" />
      <path
         style="fill:#1a1a1a;stroke-width:0.0804959"
         id="path119"
         d="m 63.786884,128.6508 c 0.26461,1.71227 0.68735,3.40474 1.22954,5.04994 0.28572,0.59338 0.14404,0.61678 0.66092,0.17284 -0.005,-0.0228 -0.32692,0.0513 -0.32168,0.074 v 0 c 0.68281,0.1976 0.55753,0.2481 0.53249,-0.43163 -0.30908,-1.70883 -0.79228,-3.38696 -1.39353,-5.01544 -0.0106,-0.05 -0.71837,0.10024 -0.70774,0.15028 z" />
      <path
         style="fill:#1a1a1a;stroke-width:0.0804959"
         id="path120"
         d="m 64.694694,128.71324 c 0.015,-0.15152 0.0129,-0.40311 0.13455,-0.52706 0.31924,-0.32519 1.58098,-0.19483 1.99881,-0.15908 1.00464,0.109 0.51251,0.0627 1.47621,0.14079 0.031,0.0162 0.26001,-0.42261 0.22898,-0.4388 v 0 c -0.90136,-0.4473 -0.4144,-0.27578 -1.46982,-0.48849 -0.9647,-0.0257 -2.83294,-0.17888 -2.98714,1.19841 -0.0139,0.1245 0.016,0.25005 0.024,0.37507 0.007,0.042 0.60157,-0.0588 0.59443,-0.10084 z" />
      <path
         style="fill:#1a1a1a;stroke-width:0.0804959"
         id="path121"
         d="m 65.004614,131.21345 c 1.02717,0.20101 2.09902,0.33626 3.14861,0.27922 0.31172,-0.0169 0.61937,-0.0788 0.92905,-0.11819 0.0381,0.0105 0.18719,-0.52876 0.14905,-0.5393 v 0 c -0.28261,-0.0523 -0.56213,-0.12563 -0.84784,-0.15695 -1.04195,-0.1142 -2.10276,-0.0271 -3.14763,-0.0327 -0.0402,-0.0163 -0.2714,0.55153 -0.23124,0.56788 z" />
      <path
         style="fill:#1a1a1a;stroke-width:0.0804959"
         id="path122"
         d="m 65.396804,134.24678 c 0.85462,0.15074 1.72156,0.16207 2.58528,0.0812 0.33182,-0.0311 0.65848,-0.10324 0.98773,-0.15485 0.0405,-0.0129 -0.14202,-0.58553 -0.18251,-0.57262 v 0 c -1.07107,-0.0188 -2.14014,-0.0134 -3.2082,0.0844 -0.0397,-0.0129 -0.22203,0.54905 -0.1823,0.56194 z" />
      <path
         style="fill:#1a1a1a;stroke-width:0.0804959"
         id="path123"
         d="m 70.708024,133.92695 c -0.0791,-1.75359 0.11668,-3.51693 0.41763,-5.24278 0.0577,-0.19795 0.042,-0.43476 0.17323,-0.59385 0.20824,-0.25254 0.46049,0.21103 0.51502,0.25917 0.21882,0.19314 0.47644,0.34047 0.68827,0.54125 0.73795,0.69942 0.90884,1.03454 1.50195,1.87567 0.63742,0.96503 1.0185,2.04223 1.33756,3.14247 -0.003,0.0305 0.42884,0.0741 0.43193,0.0435 v 0 c 0.0859,-0.20294 0.2259,-0.39075 0.25771,-0.60882 0.1652,-1.13226 -0.48462,-2.22804 -0.96128,-3.18557 -0.2741,-0.38369 -0.51682,-0.79186 -0.82229,-1.15107 -0.8137,-0.95684 -2.71521,-2.64823 -3.91267,-1.19651 -0.15848,0.19213 -0.18474,0.46259 -0.27711,0.69388 -0.0711,0.31409 -0.15995,0.62468 -0.21323,0.94228 -0.22759,1.35703 -0.2885,2.83077 0.043,4.17685 0.0416,0.1688 0.1157,0.32788 0.17355,0.49182 0.0133,0.0457 0.66002,-0.14261 0.6467,-0.18834 z" />
      <path
         style="fill:#1a1a1a;stroke-width:0.0804959"
         id="path124"
         d="m 72.129474,132.56736 c 0.84939,-0.1753 1.65657,-0.46591 2.46475,-0.77306 0.0392,-0.0199 -0.2432,-0.57431 -0.2824,-0.55434 v 0 c -0.94738,0.15952 -1.74001,0.27729 -2.58257,0.7744 -0.0391,0.0283 0.36111,0.5813 0.40022,0.553 z" />
      <path
         style="fill:#1a1a1a;stroke-width:0.0804959"
         id="path125"
         d="m 75.158904,127.7896 c -0.12237,0.85324 -0.0994,1.72023 -0.0139,2.57591 0.0354,0.35448 0.0676,0.71108 0.14454,1.05893 0.068,0.30745 0.19237,0.59965 0.28857,0.89947 0.003,0.0401 0.57034,-0.008 0.56692,-0.0484 v 0 c 0.0344,-0.30736 0.0936,-0.61295 0.10334,-0.92209 0.011,-0.34958 -0.0219,-0.69924 -0.0414,-1.04845 -0.0459,-0.82058 -0.12511,-1.63925 -0.21538,-2.45597 0.004,-0.0589 -0.82849,-0.11831 -0.8327,-0.0594 z" />
      <path
         style="fill:#1a1a1a;stroke-width:0.0804959"
         id="path126"
         d="m 75.489874,128.80288 c 0.49488,-0.67352 1.05491,-1.30334 1.906,-1.50903 0.22787,-0.0551 0.46966,-0.0998 0.70073,-0.0602 0.13533,0.0232 0.22421,0.15853 0.33631,0.23779 0.0908,0.14597 0.2299,0.27134 0.27246,0.4379 0.21207,0.82998 -0.64983,1.78242 -1.255,2.21606 -0.15403,0.11036 -0.32968,0.18689 -0.49452,0.28033 -0.47682,0.21628 -0.87031,0.29796 -0.28013,1.03912 0.11185,0.14045 0.34475,0.10063 0.51853,0.14578 0.59885,0.15559 1.20122,0.29729 1.80139,0.44771 1.45875,0.27706 0.75095,0.13974 2.12358,0.41101 0.0366,0.021 0.33392,-0.49691 0.29729,-0.51794 v 0 c -1.23256,-0.59638 -0.58576,-0.30601 -1.94412,-0.86276 -0.84116,-0.20944 -1.0954,-0.30907 -1.9198,-0.39022 -0.18106,-0.0178 -0.4241,-0.14649 -0.54568,-0.0112 -0.16161,0.1799 -0.12754,0.48073 -0.0909,0.71978 0.0361,0.23594 1.00331,-0.77074 0.68342,-0.2138 0.21425,-0.12943 0.44589,-0.23369 0.64276,-0.38829 0.93656,-0.73546 1.75965,-2.10421 1.2108,-3.31905 -0.12597,-0.27882 -0.38602,-0.47478 -0.57904,-0.71217 -0.35676,-0.0955 -0.70179,-0.26182 -1.07029,-0.28646 -0.29848,-0.02 -0.60039,0.0601 -0.88379,0.15579 -0.94389,0.31878 -1.58618,1.07688 -1.99983,1.94668 -0.0165,0.0403 0.55336,0.27345 0.56985,0.23315 z" />
      <path
         style="fill:#1a1a1a;stroke-width:0.0804959"
         id="path127"
         d="m 82.243724,131.03594 c -0.47637,-1.00646 -0.88176,-2.35419 -0.81838,-3.47254 0.0102,-0.1791 0.0786,-0.35007 0.11783,-0.52511 0.0824,-0.0194 0.17884,-0.10793 0.24722,-0.058 0.0996,0.0727 0.0602,0.2492 0.14169,0.34179 0.21936,0.24935 0.51075,0.42639 0.74299,0.66379 0.97504,0.99667 1.76754,2.14668 2.56832,3.28142 0.2057,0.30395 0.41439,0.6059 0.61709,0.91186 0.28039,0.42318 0.7808,1.58025 1.32982,0.18158 0.10592,-0.26983 -0.11877,-0.56764 -0.19007,-0.84862 -0.10385,-0.40922 -0.22348,-0.81427 -0.33522,-1.2214 -0.67352,-2.37505 -0.14249,-0.5423 -0.85355,-2.89148 -0.12129,-0.4007 -0.20679,-0.81349 -0.3582,-1.20382 -0.11091,-0.28593 -0.28349,-0.54393 -0.42524,-0.8159 -0.005,-0.0394 -0.56265,0.0351 -0.55738,0.0745 v 0 c -0.0476,0.31832 -0.15226,0.63324 -0.14287,0.95497 0.0127,0.43618 0.11671,0.86578 0.20842,1.2924 0.25745,1.19753 0.48961,1.78274 0.8785,2.94472 0.1636,0.39761 0.31412,0.80086 0.4908,1.19283 0.11563,0.25653 0.13822,0.61662 0.38542,0.75106 1.5528,0.84445 0.72094,-0.64502 0.58162,-0.91777 -0.17296,-0.33859 -0.37268,-0.66283 -0.55902,-0.99425 -0.82655,-1.24872 -1.6584,-2.50203 -2.81085,-3.48458 -0.71007,-0.60539 -1.34013,-1.08931 -2.35281,-0.87465 -0.25008,0.053 -0.37701,0.34533 -0.56552,0.518 -0.069,0.25498 -0.17992,0.50217 -0.20706,0.76493 -0.11481,1.11138 0.31125,2.52957 0.90813,3.46296 0.0982,0.15355 0.2281,0.28435 0.34215,0.42652 0.0322,0.0436 0.64835,-0.41158 0.61617,-0.45515 z" />
      <path
         style="fill:#1a1a1a;stroke-width:0.0804959"
         id="path128"
         d="m 88.725894,129.20266 c -0.14754,0.68631 -0.20812,1.38783 -0.26626,2.08614 -0.0383,0.45952 -0.11563,0.96112 -0.0288,1.41993 0.27409,-0.0561 0.60624,0.009 0.82227,-0.16833 0.15309,-0.12599 0.0693,-0.39055 0.0956,-0.58705 0.0431,-0.32104 0.0818,-0.64276 0.11256,-0.9652 0.10987,-1.15035 0.15742,-2.30476 0.20285,-3.45894 0.001,-0.0649 0.021,-1.1538 0.0197,-1.3592 -9.2e-4,-0.0704 0.0561,-0.23469 -0.0102,-0.21103 -0.12898,0.046 -0.13533,0.28049 -0.26893,0.31057 -0.50905,0.11459 -0.54513,-0.4247 -0.4497,0.0763 0.1753,0.3393 0.096,0.17136 0.23978,0.50293 -2e-5,0.0237 0.33453,0.0238 0.33454,1.6e-4 v 0 c 0.14569,-0.36112 0.0729,-0.17245 0.21698,-0.56654 -0.003,-0.10237 0.0518,-0.22459 -0.009,-0.3071 -0.4299,-0.58487 -0.54859,-0.63307 -0.92812,-0.16005 -0.11282,0.14061 -0.20704,0.76533 -0.21544,0.81983 -0.0428,0.27753 -0.0693,0.55732 -0.10401,0.83598 -0.11645,1.48339 -0.20768,2.96811 -0.11996,4.45625 0.0117,0.19747 -0.087,0.45637 0.0583,0.59058 0.20497,0.1893 0.53995,0.14083 0.80993,0.21124 0.11567,-0.44263 0.0831,-0.93924 0.0998,-1.39172 0.0254,-0.68822 0.0661,-1.37651 0.058,-2.0655 0.005,-0.0474 -0.6651,-0.11661 -0.66999,-0.0692 z" />
      <path
         style="fill:#1a1a1a;stroke-width:0.0804959"
         id="path129"
         d="m 91.482624,128.68776 c -0.0353,0.18549 -0.0766,0.36994 -0.1058,0.55649 -0.0581,0.37097 -0.13428,1.05993 -0.16702,1.43183 -0.003,0.0397 -0.0749,0.90589 -0.0473,1.03966 0.01,0.0479 0.0438,-0.0874 0.0657,-0.13112 0.22387,-0.0739 0.53084,-0.0325 0.6716,-0.22163 0.14939,-0.2007 0.0363,-0.49908 0.0507,-0.74885 0.0196,-0.33721 0.0304,-0.6749 0.0514,-1.01203 0.0212,-0.33978 0.10533,-1.61852 0.18875,-1.99377 0.0408,-0.18367 0.14118,-0.3488 0.21177,-0.5232 0.67098,0.87881 -0.48844,-0.67761 0.44917,0.79395 0.22362,0.35096 0.49894,0.66649 0.73324,1.0104 0.69738,1.02361 1.31858,2.09772 1.93902,3.16868 0.11645,0.14977 0.62091,1.007 1.03948,0.65963 0.51524,-0.42762 0.28064,-1.54952 0.20985,-2.03397 -0.16898,-1.15641 -0.27824,-1.51732 -0.54432,-2.66456 -0.44359,-1.42449 -0.15376,-0.79733 -0.8061,-1.90951 -0.008,-0.0376 -0.53898,0.0699 -0.53138,0.10749 v 0 c -0.081,1.25571 -0.10003,0.57814 0.12608,2.0296 0.27183,1.24961 0.28861,1.40333 0.61844,2.62293 0.0859,0.31765 0.0941,0.67363 0.27607,0.94781 0.0827,0.1247 0.29142,0.0705 0.43262,0.12008 0.1376,0.0483 0.3348,0.30269 0.40179,0.17315 0.082,-0.15851 -0.1635,-0.31725 -0.24524,-0.47588 -0.5625,-1.16627 -1.17171,-2.31491 -1.95525,-3.35275 -0.52132,-0.69053 -1.24588,-1.61302 -2.1764,-1.81158 -0.30306,-0.0647 -0.59338,0.17891 -0.89008,0.26837 -0.12151,0.24765 -0.28506,0.4788 -0.36454,0.74296 -0.26333,0.87516 -0.24617,2.25743 -0.17058,3.16547 0.0227,0.2729 -0.0393,0.58576 0.11228,0.81383 0.17227,0.25921 0.51655,0.34734 0.77482,0.521 0.0491,-0.0764 0.12194,-0.14208 0.1474,-0.22931 0.0279,-0.0956 0.0793,-1.01648 0.0796,-1.02215 0.0368,-0.65638 0.0727,-1.31352 0.0792,-1.97101 0.005,-0.0463 -0.65002,-0.11834 -0.65511,-0.072 z" />
      <path
         style="fill:#1a1a1a;stroke-width:0.0804959"
         id="path130"
         d="m 101.94891,125.15951 c -1.37326,-0.25101 -2.933766,0.007 -3.757326,1.26502 -0.18853,0.28805 -0.27823,0.62981 -0.41734,0.94472 -0.0404,0.35389 -0.13017,0.7056 -0.12123,1.06168 0.0374,1.48999 0.86047,2.94902 2.071311,3.80253 0.284755,0.20073 0.613445,0.33047 0.920175,0.49571 0.31983,0.084 0.63133,0.21136 0.9595,0.25204 1.33719,0.16576 3.00725,-0.13266 3.81593,-1.34739 0.19095,-0.28683 0.26295,-0.63701 0.39441,-0.95552 0.002,-0.34417 0.0687,-0.6939 0.007,-1.03251 -0.20206,-1.10917 -1.05601,-1.89982 -2.06308,-2.30889 -0.82489,-0.33507 -1.11181,-0.27168 -1.95396,-0.29283 -0.32801,0.0576 -0.66585,0.0745 -0.98403,0.17289 -0.20321,0.0628 -0.81383,0.38207 -0.67587,0.75853 0.0971,0.26501 0.33639,0.47782 0.58419,0.61294 0.42059,0.22936 1.96385,0.20515 2.2288,0.21384 1.18697,-0.045 2.36863,-0.17554 3.55361,-0.24887 0.79113,-0.049 0.95241,-0.12646 1.59188,0.18191 0.0213,0.10035 0.0602,0.19854 0.0638,0.30107 0.0135,0.38875 -0.0863,0.87206 -0.15469,1.2412 -0.12406,0.66991 -0.26539,1.33254 -0.36672,2.00645 -0.003,0.12465 -0.0596,0.52884 0.0697,0.67325 0.0611,0.0683 0.16609,0.0776 0.24914,0.11647 0.0106,0.0155 0.22921,-0.13423 0.21863,-0.14968 v 0 c 0.0596,0.0118 0.12445,0.0626 0.17873,0.0353 0.16626,-0.0834 0.009,-0.50146 0.17281,-0.53058 0.24349,-1.01152 0.7367,-2.67325 0.46965,-3.67293 -0.0651,-0.24369 -0.2222,-0.4529 -0.3333,-0.67934 -0.1754,-0.12075 -0.32566,-0.29059 -0.52618,-0.36225 -0.56027,-0.20022 -1.37629,-0.21412 -1.96219,-0.20376 -1.17243,0.0207 -2.33459,0.18657 -3.50454,0.2473 -0.26042,0.0239 -0.52021,0.056 -0.78126,0.0717 -0.24039,0.0145 -0.49351,-0.0567 -0.72222,0.0187 -0.12834,0.0423 -0.17418,0.20675 -0.26505,0.30677 -0.0204,0.0224 -0.0981,0.0658 -0.0683,0.0601 0.12238,-0.0233 0.23518,-0.0831 0.35563,-0.11495 0.10984,-0.029 0.22276,-0.0449 0.33413,-0.0673 0.24499,0.005 0.49142,-0.0134 0.73497,0.0135 0.99444,0.1099 2.20083,0.54571 2.49977,1.62174 0.0617,0.22205 0.0337,0.4597 0.0506,0.68955 -0.0749,0.21386 -0.10541,0.44897 -0.22479,0.64157 -0.42783,0.69021 -1.24455,0.87395 -1.98306,0.996 -0.18358,0.0303 -0.37044,0.0657 -0.55591,0.0507 -0.26068,-0.0211 -0.51237,-0.10532 -0.76855,-0.15798 -0.25048,-0.12094 -0.51823,-0.21123 -0.75142,-0.36282 -0.999925,-0.65003 -1.723556,-1.82153 -1.826696,-3.01467 -0.0232,-0.2679 0.0314,-0.53689 0.0471,-0.80534 0.0863,-0.2275 0.13191,-0.47489 0.25875,-0.68253 0.550391,-0.90101 1.672916,-1.07179 2.631596,-1.11168 0.0531,0.0216 0.35897,-0.7299 0.30583,-0.75153 z" />
    </g>
  </g>
</svg>
