<?xml version="1.0" encoding="UTF-8" standalone="no"?>
<!-- Created with Inkscape (http://www.inkscape.org/) -->

<svg
   width="287.27856"
   height="71.921753"
   viewBox="0 0 76.009119 19.029297"
   version="1.1"
   id="svg1"
   inkscape:version="1.3 (0e150ed6c4, 2023-07-21)"
   sodipodi:docname="homepage_design.svg"
   xmlns:inkscape="http://www.inkscape.org/namespaces/inkscape"
   xmlns:sodipodi="http://sodipodi.sourceforge.net/DTD/sodipodi-0.dtd"
   xmlns="http://www.w3.org/2000/svg"
   xmlns:svg="http://www.w3.org/2000/svg">
  <sodipodi:namedview
     id="namedview1"
     pagecolor="#ffffff"
     bordercolor="#000000"
     borderopacity="0.25"
     inkscape:showpageshadow="2"
     inkscape:pageopacity="0.0"
     inkscape:pagecheckerboard="0"
     inkscape:deskcolor="#d1d1d1"
     inkscape:document-units="px"
     inkscape:zoom="0.63118804"
     inkscape:cx="979.10601"
     inkscape:cy="575.89812"
     inkscape:window-width="1366"
     inkscape:window-height="697"
     inkscape:window-x="1272"
     inkscape:window-y="-8"
     inkscape:window-maximized="1"
     inkscape:current-layer="layer1" />
  <defs
     id="defs1" />
  <g
     inkscape:label="Layer 1"
     inkscape:groupmode="layer"
     id="layer1"
     transform="translate(-155.06246,-115.55832)">
    <g
       id="g218"
       transform="matrix(0.26916543,0,0,0.26916543,87.978172,6.9475258)">
      <path
         style="fill:#1a1a1a;stroke-width:0.264583"
         id="path194"
         d="m 270.56717,409.38262 c -4.88082,-1.67516 -10.34602,-0.27927 -14.38041,2.81823 -1.14129,0.87628 -2.07491,1.99406 -3.11236,2.99106 -0.79375,1.2822 -1.7626,2.47134 -2.38125,3.8466 -2.70268,6.00807 -1.59248,13.07901 2.77747,18.02698 1.2843,1.45418 2.94078,2.5314 4.41118,3.79712 1.92221,0.91136 3.74988,2.05713 5.76662,2.73404 9.28177,3.11534 21.44202,2.2411 29.66837,-3.35592 1.95188,-1.32802 3.43956,-3.23469 5.15932,-4.85203 0.88384,-2.11347 2.47031,-4.05675 2.65147,-6.3404 0.76576,-9.65295 -7.31195,-18.27133 -15.2636,-22.28813 -3.10724,-1.56964 -6.51153,-2.69348 -9.96638,-3.12105 -3.56568,-0.4413 -7.17621,0.37026 -10.76431,0.55541 -0.27122,0.0708 0.72975,3.90644 1.00097,3.83564 v 0 c 2.37456,0.15711 4.78468,0.0328 7.12367,0.47133 2.92952,0.54933 5.87947,1.24074 8.59224,2.47557 4.84576,2.20578 9.91322,6.28071 12.78694,10.85133 1.07911,1.7163 2.04952,3.68853 2.07905,5.71567 0.0249,1.71106 -1.2844,3.17235 -1.92657,4.75853 -1.46473,1.29661 -2.75063,2.82897 -4.39415,3.88987 -6.66329,4.30115 -16.62062,5.65539 -24.28176,3.72973 -1.78977,-0.44987 -3.45428,-1.30024 -5.18142,-1.95038 -1.32822,-0.94144 -2.80975,-1.69735 -3.98467,-2.82432 -4.00193,-3.83865 -5.08273,-9.42837 -2.93826,-14.48125 0.48858,-1.1512 1.26407,-2.15826 1.89611,-3.23739 0.8651,-0.86532 1.64984,-1.81928 2.59532,-2.59596 2.16958,-1.78231 3.21036,-2.11921 5.77099,-2.99529 0.60545,-0.20715 1.21368,-0.42519 1.84468,-0.53147 1.28873,-0.21704 2.16212,-0.11295 3.40098,-0.0414 0.13309,0.0743 1.18285,-1.80784 1.04976,-1.88208 z" />
      <path
         style="fill:#1a1a1a;stroke-width:0.264583"
         id="path195"
         d="m 278.56148,430.95896 c 1.81636,1.05495 2.33225,1.31046 4.30326,2.74138 6.12698,4.44809 11.87358,9.45504 17.70819,14.27255 1.89035,1.52135 4.56936,3.81836 6.7537,5.12384 0.61461,0.36729 1.30826,0.58232 1.96239,0.8735 0.0656,0.0834 1.24444,-0.84416 1.17885,-0.92753 v 0 c -0.27723,-0.62502 -0.44979,-1.30797 -0.83174,-1.8751 -1.50363,-2.23258 -3.90999,-4.31051 -5.78448,-6.12111 -4.60976,-4.01291 -9.23367,-7.97033 -14.33031,-11.36787 -2.39006,-1.5933 -5.06338,-3.19244 -7.74906,-4.29877 -0.71956,-0.29641 -1.48701,-0.45974 -2.23052,-0.68961 -0.16042,-0.0693 -1.14072,2.1994 -0.98028,2.26872 z" />
      <path
         style="fill:#1a1a1a;stroke-width:0.264583"
         id="path197"
         d="m 309.31908,423.26059 c -1.36901,3.66615 -2.01668,8.83082 1.15988,11.86059 0.66638,0.63558 1.5771,0.95123 2.36567,1.42687 1.19832,0.0333 2.42837,0.37587 3.59497,0.0999 1.02798,-0.24318 1.97289,-0.86815 2.73693,-1.59769 3.0009,-2.86538 3.68525,-7.46759 3.62511,-11.38732 -0.0206,-1.34458 -0.28168,-2.67467 -0.42252,-4.01203 -1.18327,-3.93785 -0.2377,-2.31468 -2.53989,-5.03071 -0.0353,-0.10298 -1.49167,0.39611 -1.45637,0.49908 v 0 c -0.009,2.9065 -0.0935,1.30472 0.38118,4.79695 0.24919,3.69774 0.85037,9.64134 -1.6924,12.75001 -0.6485,0.79282 -1.64905,1.14548 -2.54363,1.5331 -0.55142,-0.15706 -1.18052,-0.14819 -1.65428,-0.47115 -2.76381,-1.88409 -1.94006,-7.10906 -1.49611,-9.86692 0.0425,-0.14554 -2.01605,-0.74628 -2.05854,-0.60071 z" />
      <path
         style="fill:#1a1a1a;stroke-width:0.264583"
         id="path198"
         d="m 325.95888,429.83149 c 0.09,-4.11151 0.49036,-10.77756 3.97476,-13.54931 0.76798,-0.61089 1.79689,-0.78938 2.69531,-1.18406 1.10008,0.0628 2.23578,-0.0962 3.30025,0.18846 0.99973,0.26734 1.8773,0.88289 2.75527,1.43068 4.35216,2.7155 7.17703,5.56813 9.78754,10.00128 0.65689,1.11551 1.12739,2.33077 1.69109,3.49612 1.05137,3.43247 0.90564,1.82383 0.75792,4.7861 -0.0246,0.11386 1.58581,0.46057 1.61034,0.34669 v 0 c 1.56072,-3.75066 1.08275,-1.67116 1.11014,-6.30412 -0.49303,-1.42976 -0.81055,-2.93267 -1.47908,-4.28927 -3.27699,-6.6498 -9.72685,-12.40322 -17.33915,-13.11074 -1.49897,-0.1393 -2.98497,0.39376 -4.47746,0.59063 -1.18306,0.74782 -2.53886,1.27487 -3.54915,2.24346 -3.90313,3.74205 -4.32027,10.69049 -3.33997,15.67206 0.0225,0.17693 2.52468,-0.14105 2.50219,-0.31798 z" />
      <path
         style="fill:#1a1a1a;stroke-width:0.264583"
         id="path199"
         d="m 329.07441,428.92244 c 4.51069,-0.84503 9.06721,-1.42327 13.58857,-2.20025 9.72743,-1.67166 -1.38327,0.0684 6.8534,-1.19332 0.12933,-0.0426 -0.47398,-1.87145 -0.60328,-1.8288 v 0 c -2.09293,0.0257 -5.36919,0.0291 -7.36364,0.22831 -4.59783,0.45918 -9.17724,1.59898 -13.47431,3.27789 -0.12133,0.0707 0.87792,1.78681 0.99926,1.71617 z" />
      <path
         style="fill:#1a1a1a;stroke-width:0.264583"
         id="path200"
         d="m 355.08266,427.03744 c -0.50734,-1.6274 -0.87014,-7.15637 2.16233,-6.57479 0.35089,0.0673 0.57002,0.43093 0.855,0.64641 4.24715,2.63628 7.38209,6.63506 11.12171,9.88605 0.82838,0.72014 1.66132,1.45023 2.59556,2.02647 0.67122,0.41399 1.45341,0.61269 2.18009,0.91905 0.95453,-0.24281 2.16096,-0.0382 2.86358,-0.72845 1.40981,-1.38488 0.82423,-5.3707 0.60145,-6.76672 -0.37774,-2.36701 -1.41237,-6.20755 -2.44726,-8.39049 -0.52956,-1.11707 -1.3131,-2.09497 -1.96964,-3.14246 -0.041,-0.13888 -2.00485,0.44011 -1.96392,0.57896 v 0 c 0.12703,1.15854 0.16351,2.33059 0.38105,3.47557 0.29176,1.53551 1.75705,6.50296 2.18088,8.01024 0.059,0.20992 0.66763,3.26953 1.33295,3.91249 0.2277,0.22003 0.57541,0.26443 0.86312,0.39664 -0.46532,-0.2304 -0.97369,-0.38909 -1.39599,-0.69122 -1.94771,-1.39346 -3.36286,-3.10468 -5.08648,-4.76631 -3.03311,-2.92399 -6.14056,-5.83795 -10.02157,-7.60833 -1.26318,-0.0694 -2.54643,-0.44315 -3.78953,-0.20826 -0.86577,0.16362 -1.65555,0.72245 -2.27054,1.35343 -1.78465,1.83102 -1.77811,4.81846 -1.15197,7.09636 0.15361,0.55885 0.47122,1.05907 0.70686,1.58858 0.0716,0.15928 2.32394,-0.85397 2.25232,-1.01322 z" />
      <path
         style="fill:#1a1a1a;stroke-width:0.264583"
         id="path201"
         d="m 381.00518,419.03628 c 0.5719,4.6065 1.29485,9.1974 2.25536,13.73923 0.24027,0.42691 0.48054,0.85381 0.72083,1.28072 0.006,0.0912 1.29561,0.008 1.28974,-0.083 v 0 c 0.17039,-0.48466 0.34078,-0.96933 0.51118,-1.45399 -0.16891,-4.73028 -1.08077,-9.44195 -2.59498,-13.9269 -0.0314,-0.15431 -2.21354,0.28964 -2.18213,0.44394 z" />
      <path
         style="fill:#1a1a1a;stroke-width:0.264583"
         id="path202"
         d="m 376.08539,417.98187 c 4.77504,-0.83471 9.6425,-0.94917 14.47707,-0.81505 3.20733,0.0718 1.68114,0.10268 4.57917,-0.0571 0.0986,0.0406 0.67323,-1.35374 0.57465,-1.39438 v 0 c -2.64385,-1.09855 -1.19256,-0.65969 -4.38954,-1.19211 -5.46347,-0.22193 -11.20913,-0.36478 -16.31591,1.89735 -0.11041,0.076 0.96415,1.63732 1.07456,1.56134 z" />
      <path
         style="fill:#1a1a1a;stroke-width:0.264583"
         id="path203"
         d="m 393.8193,418.62025 c -0.16471,0.49924 -0.3895,0.98253 -0.49411,1.49773 -0.80426,3.96158 -0.0452,8.45018 2.6861,11.55496 0.81674,0.92842 1.90217,1.58049 2.85324,2.37075 3.24929,1.19806 4.42894,2.17789 8.18899,0.96176 2.87342,-0.92935 4.76437,-3.66737 5.78768,-6.30656 1.50055,-3.87011 1.05971,-6.03205 0.97705,-10.05953 -1.36213,-5.64399 -0.23633,-3.17106 -3.10293,-7.53772 -0.0412,-0.13327 -1.92624,0.44958 -1.88505,0.58288 v 0 c 0.39555,4.41817 0.13782,2.06713 0.81323,7.0486 0.12205,3.59013 0.61356,8.23661 -1.75268,11.35015 -0.54153,0.71258 -1.36594,1.17282 -2.14122,1.61997 -0.54348,0.31345 -1.14393,0.62854 -1.77131,0.63664 -0.95176,0.0122 -1.86433,-0.38524 -2.79649,-0.57785 -0.80967,-0.53449 -1.72003,-0.94126 -2.42906,-1.60351 -2.90147,-2.71007 -3.29152,-7.16232 -2.98762,-10.87877 0.0466,-0.13758 -1.89918,-0.79708 -1.94582,-0.6595 z" />
      <path
         style="fill:#1a1a1a;stroke-width:0.264583"
         id="path204"
         d="m 419.31642,429.44129 c -0.25431,-2.12188 -0.2735,-4.24892 -0.0555,-6.37606 0.1084,-1.05757 0.25546,-3.22311 1.11567,-4.19524 0.1732,-0.19574 0.51779,-0.0716 0.77668,-0.10744 -0.0392,0.25804 -0.23085,0.53887 -0.11776,0.77411 0.3008,0.62574 0.8831,1.0735 1.27989,1.6432 1.51707,2.17821 3.33021,5.79585 5.7417,7.10697 0.71072,0.38642 1.57803,0.35724 2.36704,0.53586 1.03547,-0.81116 2.36942,-1.344 3.10637,-2.43353 0.70943,-1.04886 0.79084,-2.41432 1.01552,-3.66046 0.52073,-2.88785 0.42918,-5.4424 0.41048,-8.35181 -0.0241,-3.75425 -0.15328,-1.93728 0.0597,-4.20478 -0.58959,0.40947 -1.44928,0.5856 -1.76874,1.2284 -0.25143,0.50597 0.19841,1.11319 0.33232,1.66209 0.29377,1.20425 0.63982,2.39519 0.9502,3.59526 1.18676,4.58836 2.2982,9.19454 3.40407,13.80289 1.22632,4.69189 0.4345,2.55723 2.23624,6.4539 0.0151,0.1292 1.84205,-0.0831 1.82705,-0.21227 v 0 c 0.65791,-4.3539 0.56592,-2.03025 0.0623,-6.97611 -0.90041,-4.82314 -1.88455,-9.5649 -3.5578,-14.19416 -0.2045,-0.56578 -2.22877,-5.99987 -3.35619,-6.51605 -1.0092,-0.46201 -2.20496,0.25697 -3.30745,0.38542 -0.24934,0.6005 -0.62013,1.16398 -0.74808,1.8015 -0.36666,1.82684 -0.23498,5.35948 -0.24747,7.08167 -0.009,1.27665 -0.003,2.55413 -0.0593,3.82953 -0.0404,0.91207 -0.39066,1.83012 -0.23144,2.7291 0.0788,0.44466 0.59667,0.67802 0.89498,1.01706 -1.41501,0.44325 -0.76779,0.48006 -2.4244,-1.36996 -8.51702,-9.51119 4.87212,4.93366 -4.02989,-5.26333 -0.69366,-0.7946 -1.343,-1.71773 -2.28839,-2.18543 -1.00914,-0.49925 -2.21691,-0.39455 -3.32536,-0.59182 -0.63971,0.43185 -1.42475,0.70281 -1.9191,1.29555 -2.03615,2.44124 -1.75451,7.9415 -1.01193,10.82607 0.15492,0.60176 0.43397,1.16456 0.65093,1.74683 0.062,0.15679 2.27957,-0.72014 2.21755,-0.87696 z" />
      <path
         style="fill:#1a1a1a;stroke-width:0.264583"
         id="path205"
         d="m 347.58309,447.33575 c -0.6899,-0.17907 -1.36067,-0.46482 -2.06975,-0.53721 -4.62103,-0.47192 -10.75669,0.53615 -12.84986,5.41337 -0.51075,1.1901 -0.43384,2.55357 -0.65077,3.83035 0.38034,1.36609 0.48718,2.83993 1.14099,4.09826 1.73741,3.34388 4.39113,5.50537 7.56946,7.38907 1.43127,0.84828 3.02718,1.38144 4.54078,2.07217 0.13481,0.10988 1.68876,-1.79671 1.55395,-1.90659 v 0 c -3.13684,-2.20742 -4.3707,-2.91558 -7.21669,-5.59401 -0.99952,-0.94067 -2.03023,-1.8773 -2.82245,-2.99815 -0.56671,-0.80177 -0.79896,-1.7938 -1.19845,-2.69068 0.0388,-0.79055 -0.15079,-1.62653 0.11626,-2.37162 1.00615,-2.80723 4.40473,-3.5075 6.88988,-4.1039 0.61751,-0.14819 1.23695,-0.30858 1.8692,-0.36814 0.6464,-0.0609 1.29855,0.006 1.94781,0.008 0.15848,0.0834 1.33816,-2.15802 1.17964,-2.24145 z" />
      <path
         style="fill:#1a1a1a;stroke-width:0.264583"
         id="path206"
         d="m 356.28635,451.53201 c -2.17702,-0.68561 -4.59515,-0.49768 -5.84742,1.75437 -0.48252,0.86776 -0.77714,1.88312 -0.77534,2.876 0.006,3.27104 1.36139,4.63709 2.97762,7.33073 1.22426,1.10651 2.30759,2.39247 3.67276,3.31954 5.41454,3.67692 16.16993,6.052 19.90448,-1.41055 0.86878,-1.73603 0.67698,-3.82312 1.01547,-5.73465 -0.76994,-2.12032 -1.10512,-4.45379 -2.30979,-6.36093 -2.67203,-4.23013 -7.59235,-7.87215 -12.46957,-9.04489 -2.75344,-0.66207 -5.66132,-0.1687 -8.49199,-0.25302 -0.23551,-0.0781 -1.33969,3.25263 -1.10419,3.33071 v 0 c 2.25494,0.33305 4.56618,0.39775 6.76482,0.99912 4.421,1.20928 7.95189,3.04964 10.95642,6.56108 1.08818,1.27177 1.64266,2.91682 2.46401,4.37523 -0.0135,1.23852 0.38785,2.55328 -0.0402,3.71557 -0.3818,1.03666 -1.30919,1.84192 -2.23086,2.45102 -3.34225,2.20874 -8.53406,0.49652 -11.64289,-1.21589 -1.20861,-0.66575 -2.2335,-1.62084 -3.35026,-2.43126 -0.70278,-0.92001 -1.50482,-1.77204 -2.10833,-2.76 -1.04394,-1.70899 -1.76001,-3.46051 -0.26241,-5.06772 0.15502,-0.16637 0.34345,-0.32129 0.56062,-0.38865 0.35179,-0.10914 0.73184,-0.0838 1.09776,-0.12578 0.13576,0.0862 1.35504,-1.83383 1.21925,-1.92003 z" />
      <path
         style="fill:#1a1a1a;stroke-width:0.264583"
         id="path207"
         d="m 378.3947,451.62422 c -0.35851,4.28045 -0.01,8.61367 0.69606,12.84351 0.18659,1.11818 0.36402,2.24298 0.67342,3.33359 0.24066,0.84839 0.64701,1.64076 0.97052,2.46113 0.0135,0.12046 1.71714,-0.0703 1.70365,-0.19077 v 0 c 0.097,-0.87606 0.29038,-1.74675 0.29091,-2.62813 0,-1.1181 -0.16931,-2.23012 -0.28744,-3.34198 -0.44151,-4.1552 -1.11734,-8.28469 -1.70043,-12.421 0.004,-0.16594 -2.3427,-0.2223 -2.34669,-0.0564 z" />
      <path
         style="fill:#1a1a1a;stroke-width:0.264583"
         id="path208"
         d="m 377.80981,450.79763 c 2.35021,1.35239 4.46513,3.09028 6.78463,4.48601 1.01542,0.61103 2.08764,1.12226 3.13148,1.68339 0.10498,0.0993 1.5095,-1.38525 1.40451,-1.48455 v 0 c -0.87863,-0.76208 -1.70389,-1.59049 -2.63591,-2.28627 -2.2865,-1.7069 -4.89908,-3.01638 -7.53671,-4.07529 -0.11856,-0.0812 -1.26656,1.59554 -1.148,1.67671 z" />
      <path
         style="fill:#1a1a1a;stroke-width:0.264583"
         id="path209"
         d="m 395.74128,448.15535 c -2.30732,0.90355 -4.23487,2.69094 -5.62538,4.72749 -0.59325,0.86889 -0.98589,1.85894 -1.47884,2.78839 -0.067,0.11573 1.56938,1.06386 1.63642,0.94816 v 0 c 0.70432,-0.72945 1.42841,-1.44034 2.11296,-2.18834 0.4286,-0.46834 2.71653,-3.19371 3.34619,-3.8051 0.28334,-0.27517 0.63145,-0.47461 0.94721,-0.71192 0.12435,-0.0664 -0.8142,-1.82504 -0.93856,-1.75868 z" />
      <path
         style="fill:#1a1a1a;stroke-width:0.264583"
         id="path210"
         d="m 398.35195,451.76553 c 2.42065,5.95837 4.73149,11.9588 7.30996,17.85152 0.18643,0.39129 1.54112,3.39153 2.05947,4.00756 0.22891,0.27207 0.60129,0.37968 0.90196,0.56952 0.0199,0.0753 1.08392,-0.20511 1.06408,-0.28035 v 0 c 0.13419,-0.33584 0.39338,-0.64598 0.40259,-1.00754 0.0246,-0.96633 -0.93224,-3.77364 -1.12065,-4.39494 -2.27893,-6.13217 -4.77057,-12.45039 -8.4773,-17.87231 -0.0797,-0.15132 -2.21975,0.9752 -2.14011,1.12654 z" />
      <path
         style="fill:#1a1a1a;stroke-width:0.264583"
         id="path211"
         d="m 410.21391,452.23085 c 0.93737,5.94448 2.22404,11.82635 3.60061,17.68258 0.12689,0.49726 -0.094,1.68675 0.38073,1.49181 3.28131,-1.34758 1.74311,-3.97526 1.26802,-6.24602 -0.35102,-1.67781 -0.7556,-3.34489 -1.06696,-5.03053 -1.08606,-5.87959 -0.87299,-5.17591 -1.25846,-11.00079 0.20415,-2.85369 0.31181,-7.77452 4.71188,-7.05324 0.73822,0.12103 1.35856,0.64718 1.96234,1.08877 3.24974,2.37677 2.64668,2.17127 4.67579,5.65774 0.3147,3.10253 0.91335,3.95634 -0.81089,6.79169 -1.78925,2.94222 -5.1227,4.48316 -8.01902,6.03216 -0.12536,0.0701 0.8663,1.84304 0.99166,1.77292 v 0 c 1.31307,-0.22492 2.69965,-0.18658 3.93917,-0.67474 4.39158,-1.72953 7.7675,-6.02435 8.07061,-10.7932 0.10324,-1.62412 -0.46114,-3.22194 -0.69173,-4.83291 -1.94013,-3.13809 -2.80159,-5.63673 -6.48962,-7.19473 -4.91143,-2.07484 -9.74823,-0.73964 -11.74731,4.40735 -0.61397,1.58073 -0.57187,3.34301 -0.85781,5.01451 0.10655,1.93464 0.0704,3.88245 0.31962,5.8039 0.47628,3.67144 1.54313,7.4044 2.76159,10.89388 0.87286,2.49973 1.18856,5.28939 4.82856,4.96662 0.5215,-0.0462 -0.11866,-1.04028 -0.17801,-1.56045 -0.98724,-6.01054 -2.1945,-12.05323 -4.43468,-17.73635 -0.0367,-0.13832 -1.99281,0.38071 -1.95609,0.51903 z" />
      <path
         style="fill:#1a1a1a;stroke-width:0.264583"
         id="path212"
         d="m 430.01996,453.87707 c -0.75684,3.91586 -0.42506,8.51828 1.97757,11.87061 0.55462,0.7738 1.33911,1.3536 2.00867,2.03044 0.89397,0.29056 1.74596,0.95853 2.68197,0.87169 3.39646,-0.31509 4.83447,-1.9934 6.17432,-4.89974 1.34509,-2.91774 1.87163,-6.67652 1.96183,-9.8362 0.0452,-1.58496 -0.16806,-3.16675 -0.25207,-4.75012 -1.24113,-4.52297 -0.28712,-2.6216 -2.51989,-5.86338 -0.0298,-0.11057 -1.59343,0.31144 -1.56358,0.42201 v 0 c -0.14433,3.29933 -0.10523,1.44873 -0.0479,5.55279 0.0387,4.26574 0.2068,8.69661 -1.00002,12.84928 -0.25392,0.87376 -0.78266,1.64385 -1.12937,2.48509 -0.152,0.36881 -0.0257,0.92927 -0.36457,1.13983 -0.44458,0.27628 -1.04608,0.0413 -1.56911,0.0619 -0.52655,-0.42974 -1.15028,-0.7624 -1.57962,-1.28927 -2.22567,-2.73142 -2.50018,-6.87054 -2.62932,-10.23765 0.0288,-0.15195 -2.12008,-0.55922 -2.14889,-0.40727 z" />
      <path
         style="fill:#1a1a1a;stroke-width:0.264583"
         id="path213"
         d="m 446.12948,451.8707 c 0.33166,4.08234 0.6622,8.17505 1.21719,12.23481 0.132,0.96557 0.24106,1.93786 0.46355,2.88669 0.16214,0.69138 0.45757,1.34456 0.68636,2.01684 0.16833,0.35414 0.33665,0.70829 0.50498,1.06243 0.005,0.0846 1.20222,0.0135 1.19719,-0.0711 v 0 c 0.11626,-0.38233 0.23249,-0.76468 0.34875,-1.147 0.10408,-0.70641 0.28575,-1.40568 0.31231,-2.11923 0.059,-1.58504 -0.29318,-4.88077 -0.47643,-6.35651 -0.37627,-3.03056 -0.85688,-6.06801 -1.77083,-8.98922 -0.0341,-0.17558 -2.51717,0.30671 -2.48307,0.48228 z" />
      <path
         style="fill:#1a1a1a;stroke-width:0.264583"
         id="path214"
         d="m 443.13422,453.48831 c 6.91313,-0.89916 13.86689,-1.41769 20.81731,-1.92645 0.84261,-0.14971 1.68521,-0.29938 2.52782,-0.44906 0.11991,-0.0316 -0.32644,-1.72746 -0.44637,-1.69589 v 0 c -0.94314,-0.13685 -1.88627,-0.27372 -2.8294,-0.41056 -7.05583,0.0546 -14.24216,0.57227 -20.97538,2.8253 -0.11715,0.0641 0.78886,1.72072 0.90602,1.65666 z" />
      <path
         style="fill:#1a1a1a;stroke-width:0.264583"
         id="path215"
         d="m 467.28832,451.98725 c -0.0969,5.91122 0.023,11.86246 1.11294,17.68488 0,0.11941 1.69003,0.10309 1.68886,-0.0164 v 0 c 0.13502,-0.83987 0.32642,-1.67256 0.40505,-2.51955 0.47332,-5.0987 -0.19769,-10.25826 -1.08135,-15.27214 -0.009,-0.15029 -2.13421,-0.0272 -2.1255,0.12313 z" />
      <path
         style="fill:#1a1a1a;stroke-width:0.264583"
         id="path216"
         d="m 475.89506,456.22138 c -0.31401,3.21112 -0.40005,6.44544 -0.32825,9.67041 0.0424,1.90495 -0.13726,1.31445 0.21193,2.23997 0.74999,-0.39754 1.83997,-0.44937 2.24992,-1.19261 0.43418,-0.78714 -0.0491,-1.79761 -0.10571,-2.69476 -0.0801,-1.27026 -0.19539,-2.53807 -0.30421,-3.80619 -0.0238,-0.27842 -0.67514,-7.2971 -0.69247,-7.8247 -0.0268,-0.81447 0.076,-1.62807 0.11396,-2.44211 0.19505,-0.11964 0.45971,-0.55036 0.58515,-0.35899 0.20119,0.30692 -0.27599,0.77317 -0.10189,1.0962 0.43545,0.80798 1.25058,1.34736 1.81067,2.07452 1.97774,2.56759 3.71809,5.31016 5.63211,7.92562 0.96742,1.32199 1.97625,2.61316 2.96439,3.91975 1.69934,1.88751 5.34302,6.53264 8.36687,2.89629 0.861,-1.03543 0.85912,-2.57366 1.00848,-3.91195 0.36616,-3.28102 -0.28149,-7.06551 -0.65937,-10.28107 -0.54247,-2.48365 -1.18374,-6.46936 -2.48144,-8.8451 -0.43945,-0.80452 -1.22106,-1.36769 -1.83158,-2.05153 -0.0396,-0.1079 -1.5653,0.45292 -1.52567,0.56079 v 0 c 0.018,0.72599 -0.0159,1.45513 0.0539,2.17799 0.24915,2.5866 0.93776,6.21716 1.36562,8.68503 1.36977,8.12882 0.39965,2.04092 1.44682,9.4248 0.10618,0.74867 0.0183,1.55977 0.3438,2.24229 0.18108,0.37968 1.42782,0.88736 1.05545,0.69173 -2.03491,-1.06915 -1.80446,-1.39007 -3.65874,-3.64239 -2.01314,-2.8181 -3.91496,-5.56768 -6.10534,-8.2596 -1.04172,-1.28024 -2.08722,-2.56492 -3.25514,-3.73118 -1.97319,-1.97035 -3.57093,-3.63217 -6.70394,-2.73352 -0.77094,0.22114 -1.05462,1.20859 -1.58194,1.81288 -0.16354,0.98514 -0.4464,1.95781 -0.49062,2.95547 -0.0566,1.27638 0.0781,2.55548 0.19003,3.82823 0.22373,2.54392 0.67315,5.5068 1.22081,8.01351 0.2041,0.93427 0.0852,2.07153 0.73504,2.77313 0.66051,0.71313 1.82996,0.65614 2.74497,0.98422 0.51507,-1.22499 0.30573,-0.4926 0.31467,-2.54301 0.014,-3.22853 -0.0319,-6.47179 -0.3592,-9.68502 -0.003,-0.15762 -2.23125,-0.12671 -2.22908,0.0309 z" />
      <path
         style="fill:#1a1a1a;stroke-width:0.264583"
         id="path217"
         d="m 528.03197,444.88904 c -0.0259,-3.70877 -3.09049,-6.11098 -6.4239,-7.09933 -0.92019,-0.27284 -1.88685,-0.35277 -2.83027,-0.52917 -1.31639,0.0299 -2.64269,-0.0745 -3.9491,0.0897 -3.08197,0.38738 -6.15577,1.91357 -8.39906,4.04299 -1.82851,1.73567 -2.00755,2.49966 -3.16669,4.68474 -1.91056,5.32241 -1.61793,10.99587 -0.54071,16.45547 0.7256,2.7059 1.99449,5.36961 4.8014,6.4311 2.15545,0.81513 3.21707,0.43452 5.58429,0.27138 0.83799,-0.30263 1.71797,-0.50763 2.51399,-0.90786 2.51847,-1.26627 4.44889,-3.3876 4.89186,-6.25166 0.35946,-2.32426 -0.22119,-3.05207 -1.00661,-5.16189 -1.18115,-1.94207 -2.69372,-3.39143 -4.79163,-4.27294 -0.28062,-0.11792 -0.79941,-0.52313 -0.88363,-0.23058 -0.95099,3.30356 0.25993,2.75288 2.47447,3.16055 4.31048,0.78954 8.70664,0.33009 13.0439,0.68911 -0.13771,-0.0485 -0.27726,-0.19868 -0.41317,-0.14536 -0.3551,0.1393 -1.04161,1.81083 -1.07405,1.87899 -0.91408,1.92087 -1.71455,3.83344 -2.41866,5.84054 -0.34071,1.60459 -1.30395,3.84919 -0.35209,5.45682 0.16002,0.27027 0.34404,0.60373 0.64757,0.68445 0.36309,0.0966 0.73721,-0.14539 1.10583,-0.21809 0.0621,0.0185 0.3252,-0.85921 0.26313,-0.87781 v 0 c 0.1651,-0.0824 0.31646,-0.20161 0.49527,-0.24712 0.0456,-0.0116 0.0884,0.13829 0.1052,0.0943 0.0378,-0.0991 -0.0238,-0.21161 -0.0198,-0.31763 0.01,-0.27792 0.0161,-0.55761 0.0609,-0.83211 0.18667,-1.14501 0.41942,-1.66471 0.80243,-2.8135 0.72274,-1.95025 1.58213,-3.85019 2.28521,-5.80639 0.31615,-0.87966 0.96506,-2.66927 0.73088,-3.66932 -0.13689,-0.58465 -0.62706,-1.0242 -0.94059,-1.53633 -1.7412,-0.7016 -3.03107,-0.74679 -4.92276,-0.86021 -2.76339,-0.16566 -5.53133,-0.26006 -8.29633,-0.39254 -2.89335,-0.11366 -2.65221,-0.63286 -4.99549,2.20869 -0.12883,0.15618 0.34867,0.2063 0.52827,0.29977 1.47124,0.76555 2.59852,1.5158 3.54293,2.95402 0.65669,1.33123 1.10201,1.74678 0.94123,3.28904 -0.30062,2.88335 -2.9368,4.28485 -5.41065,5.03102 -0.37047,0.1051 -0.72848,0.27459 -1.11141,0.31533 -3.30949,0.35214 -4.37904,-1.65491 -5.03889,-4.54456 -0.67019,-4.0191 -1.13715,-8.49241 -0.31062,-12.52582 0.15206,-0.74192 0.42857,-1.45278 0.64283,-2.17916 0.34481,-0.65567 0.60976,-1.35999 1.03445,-1.967 2.36648,-3.38238 6.46623,-4.72363 10.37944,-5.15974 3.46948,0.36105 7.09819,0.8333 8.23084,4.66815 0,0.15486 2.18996,0.15486 2.18996,0 z" />
    </g>
  </g>
</svg>
